<?xml version="1.0" encoding="utf-8"?>
<!-- Generator: Adobe Illustrator 21.0.0, SVG Export Plug-In . SVG Version: 6.00 Build 0)  -->
<svg version="1.1" id="Layer_1" xmlns="http://www.w3.org/2000/svg" xmlns:xlink="http://www.w3.org/1999/xlink" x="0px" y="0px"
	 viewBox="0 0 576.8 121.3" style="enable-background:new 0 0 576.8 121.3;" xml:space="preserve">
<style type="text/css">
	.st0{fill:#8D734A;}
</style>
<title>Ajman_gov_H</title>
<g>
	<rect x="197.6" y="8" class="st0" width="1.2" height="105.3"/>
	<path class="st0" d="M232,108.2c-0.8-0.2-1.5-0.8-1.7-1.6c-0.9-2.2-2.5-6.1-3.3-8.4c0,0.5,0,1.5,0,2c0,1.9-0.1,5.4-0.1,6.6
		c0,0.4,0,0.8,0.1,1.1h-1.8v-0.4c0.2-4.4,0.4-10,0.5-11.6c-0.1-0.3-0.3-0.5-0.6-0.7l0.2-0.4c0.6-0.2,1.2-0.3,1.8-0.3
		c0.6,0,1.1,0.1,1.6,0.3c0.5,1.9,2.9,8,4,10.6c0.9-2.3,1.5-4.4,2-5.7c1.3-3.4,1.5-4,1.6-4.2c0.4-0.9,2.2-0.8,3.4-0.9
		c-0.2,3.6-0.1,8.7,0,12.1c0,0.4,0.1,0.9,0.2,1.3h-3v-1.3c0-0.7,0-1.3,0-1.9c0-2,0-4.1,0-5.4l-0.1-1.1l-0.3,1.1l-3,7.4
		c-0.2,0.6-0.3,1.3-0.5,1.8L232,108.2z"/>
	<path class="st0" d="M243.3,102c0-0.8-0.1-1.6-0.3-2.4c-0.1-0.4-0.4-0.6-0.7-0.8v-0.4c0.6-0.4,1.3-0.6,2-0.7c1.3,0,1.5,0.9,1.5,1.9
		c0,1.2-0.1,2.5-0.1,3.9c0,1.6,0.1,3,1.3,3c0.9,0,1.7-0.3,2.3-0.9c0-0.8,0-2.3,0-4.3s-0.6-2.4-1-2.5v-0.4c0.6-0.4,1.3-0.6,2-0.7
		c1.4,0,1.6,0.9,1.6,1.8c0,0.4,0,0.9,0,5.3c0,1.1,0.1,1.7,0.4,1.9c0.3,0.2,0.7,0.4,1.1,0.3v0.4c-0.7,0.4-1.4,0.6-2.1,0.6
		c-1,0-1.7-0.8-1.8-1.8c-0.9,1.1-2.2,1.7-3.5,1.8c-1.4,0.1-2.6-1-2.7-2.4C243.3,105,243.3,104.6,243.3,102"/>
	<path class="st0" d="M261.3,108c0-0.2-0.1-0.4-0.1-0.6c0-1.6,0-3.6,0-5.1c0-1.8-0.2-2.7-1.2-2.7c-0.9,0-1.7,0.4-2.4,1
		c0,0.9,0,3.9,0.1,5.9c0,0.5,0.1,1.1,0.2,1.6h-2.8v-0.6l0.1-6.1c0-2.2-1-2.4-1-2.4v-0.4c0.6-0.4,1.4-0.7,2.1-0.7
		c0.7,0,1.3,0.5,1.4,1.1v0.6c0.8-1,2-1.7,3.3-1.8c1.5-0.1,2.7,1.1,2.8,2.5c0,0,0,0.1,0,0.1c-0.1,2.6,0,5.1,0.2,7.7L261.3,108z"/>
	<path class="st0" d="M269.9,108h-2.8l0.1-6.8c0-2.2-1-2.4-1-2.4v-0.4c0.6-0.4,1.4-0.7,2.1-0.7c1.1,0,1.4,0.9,1.4,1.9
		c0,0.6-0.1,1.3-0.1,2.1v1.9C269.7,105.1,269.7,106.6,269.9,108 M268.3,93.9c0.7,0,1.3,0.6,1.3,1.4c0,0.7-0.6,1.3-1.3,1.3
		c-0.7,0-1.4-0.6-1.4-1.3C266.9,94.5,267.5,93.9,268.3,93.9L268.3,93.9"/>
	<path class="st0" d="M277,97.7c1.8,0,3.3,0.7,3.3,1.9c0,0.7-0.6,1.2-1.2,1.2c0,0,0,0,0,0c-0.4,0-0.7-0.2-0.9-0.4
		c0-0.7-0.6-1.3-1.3-1.3c0,0-0.1,0-0.1,0c-1.4,0-2.3,1.9-2.3,3.7s1,3.8,2.7,3.8c1.3,0,2.5-0.7,3.2-1.8c0.1,0.2,0.1,0.5,0.1,0.7
		c0,1.6-1.9,2.8-4.2,2.8s-4.3-1.5-4.3-4.9C272,100.3,274.2,97.7,277,97.7"/>
	<path class="st0" d="M285.4,108h-2.8l0.1-6.8c0-2.2-1-2.4-1-2.4v-0.4c0.6-0.4,1.4-0.7,2.1-0.7c1.1,0,1.4,0.9,1.4,1.9
		c0,0.6-0.1,1.3-0.1,2.1v1.9C285.2,105.1,285.2,106.6,285.4,108 M283.8,93.9c0.7,0,1.3,0.6,1.3,1.4c0,0.7-0.6,1.3-1.3,1.3
		c-0.7,0-1.4-0.6-1.4-1.3C282.4,94.5,283,93.9,283.8,93.9L283.8,93.9"/>
	<path class="st0" d="M288.5,112.8c0-0.3,0-1.4,0-2.4v-2.1c0-3.9,0.1-7.3,0.1-7.3c0-1.1-0.4-1.9-1-2.1v-0.4c0.6-0.4,1.3-0.7,2.1-0.7
		c1,0,1.4,0.5,1.4,1c0.6-0.6,1.5-1,2.3-1.1c2,0,4.1,1.6,4.1,5.1c0,2.7-1.7,5.5-5,5.5c-0.5,0-0.9-0.1-1.4-0.2c0,1.6,0,3.1,0.2,4.7
		L288.5,112.8z M291.2,99.6c0,1.6-0.1,3.6-0.1,6.2v1.1c0.5,0.1,1,0.2,1.6,0.2c1.8,0,2.2-2.3,2.2-3.8c0-2.5-1-4-2.5-4
		C292,99.3,291.5,99.4,291.2,99.6"/>
	<path class="st0" d="M308.3,107.2v0.4c-0.7,0.4-1.4,0.6-2.2,0.6c-0.8-0.1-1.5-0.6-1.7-1.4c-0.6,0.9-1.6,1.5-2.6,1.4
		c-2.1,0-3-1.3-3-2.6c0-1.9,1.9-3.1,4.2-3.1c0.4,0,0.8,0.1,1.2,0.2c0-0.4,0-0.8,0-1.2c0-1.4-0.2-2.6-1.4-2.6c-0.7,0-1.2,0.5-1.3,1.2
		c0,0.1,0,0.3,0.1,0.4c-0.3,0.3-0.7,0.4-1.1,0.4c-0.6,0-1.1-0.4-1.1-1c0,0,0,0,0-0.1c0-1.3,1.8-2.1,3.5-2.1c2.4,0,3.9,1,3.9,3.1
		c0,0.8,0,1.4,0,2.9c0,1,0,1.9,0.2,2.9C307.3,107.3,308.2,107.2,308.3,107.2 M301.1,105.2c0,0.8,0.5,1.4,1.3,1.5c0,0,0,0,0,0
		c0.6,0,1.2-0.2,1.7-0.6c0-0.9,0-1.9,0-2.7C303.3,103.4,301.2,103.7,301.1,105.2"/>
	<path class="st0" d="M310.1,108c0-2,0.1-3.9,0.1-5.6c0-3.5,0-6.2,0-6.2c0-1.4-0.6-2.1-1-2.3v-0.4c0.6-0.3,1.3-0.6,2-0.6
		c1.3,0,1.6,0.7,1.6,2c0,0.4,0,0.9-0.1,1.4c-0.1,1.3-0.1,3.3-0.1,5.2c-0.1,2.2,0,4.3,0.2,6.5L310.1,108z"/>
	<path class="st0" d="M318.8,108H316l0.1-6.8c0-2.2-1-2.4-1-2.4v-0.4c0.6-0.4,1.4-0.7,2.1-0.7c1.1,0,1.4,0.9,1.4,1.9
		c0,0.6-0.1,1.3-0.1,2.1v1.9C318.6,105.1,318.7,106.6,318.8,108 M317.2,93.9c0.7,0,1.3,0.6,1.3,1.4c0,0.7-0.6,1.3-1.3,1.3
		c-0.7,0-1.4-0.6-1.4-1.3C315.8,94.5,316.4,93.9,317.2,93.9L317.2,93.9"/>
	<path class="st0" d="M324.4,98h1.8c0.3,0,0.9-0.1,1-0.3c0,0.2,0.1,0.3,0.1,0.5c0,0.6-0.3,1.2-1.7,1.2c-0.3,0-1-0.1-1.3-0.1v4.5
		c0,1.1-0.1,2.7,1.2,2.7c0.7,0,1.8-0.3,2.1-0.7c0.5,1.3-1.1,2.5-2.9,2.5c-2.5,0-3-1.2-3-3.2c0-1.4,0.2-3,0.2-4.3
		c0-0.5,0-0.9-0.2-1.4c-0.2-0.3-0.6-0.6-1-0.7l0.1-0.6c0.1,0,1.1,0,2.1-1.7h1.6L324.4,98z"/>
	<path class="st0" d="M331.4,106.9c-0.6-1.8-1.1-3.7-1.7-5.5c-0.7-2.2-1.6-2.6-1.7-2.6v-0.4c0.5-0.4,1.2-0.6,1.8-0.6
		c1.2,0,1.6,0.6,1.8,1.7c0.4,1.7,0.9,3.3,1.5,4.9c0,0.1,0.4,0.9,0.5,1c0.1-0.4,0.2-0.7,0.3-1.1l1.2-3.6c0.2-0.4,0.3-0.8,0.3-1.2
		c0-0.3-0.1-0.5-0.3-0.7v-0.4c0.4-0.4,1-0.6,1.6-0.6c0.6,0,0.7,0.3,0.7,0.7c-0.1,0.6-0.2,1.2-0.5,1.8L333,110
		c-0.7,1.7-1.4,3.3-3.4,3.3c-1,0-1.8-0.8-1.8-1.8c0-0.2,0-0.4,0.1-0.5c0.4,0.4,0.9,0.6,1.5,0.6c0.8,0.1,1.6-0.3,2-1.1l0.9-2
		c0.1-0.1,0.2-0.3,0.2-0.4C332.1,107.9,331.7,107.5,331.4,106.9"/>
	<path class="st0" d="M353.9,98.3h2.6c0.4,0,0.9-0.1,1.3-0.3c0,0.1,0,0.3,0,0.4c0,0.8-0.6,1.2-1.7,1.2c-0.2,0-0.5,0-0.7,0
		c-0.1,1.9-0.5,3.8-1.4,5.5c1.6,1.3,2.5,1.7,3.4,1.7c0.4,0,0.8-0.2,1.1-0.4c0,1-0.8,1.8-2.4,1.8c-1.3-0.1-2.6-0.5-3.6-1.3
		c-1.1,0.9-2.5,1.3-3.9,1.4c-2.6,0-4.2-1.6-4.2-3.7c0.1-1.7,1-3.3,2.4-4.3c-0.8-1.2-1.2-2.6-1.4-4c0-2,1.6-3.4,4.1-3.4
		c2,0,3.3,1.1,3.3,2.6c0,2.1-2.7,3.9-3.4,4.3c1,1.6,2.2,3,3.5,4.4c0.5-1.1,0.7-2.2,0.7-3.4c0-0.7-0.1-1.3-0.2-2L353.9,98.3z
		 M351.6,106.1c-1.6-1.5-3-3.2-4.1-5c-0.5,0.5-0.8,1.2-0.8,1.9c-0.1,1.9,1.4,3.5,3.3,3.6C350.5,106.6,351.1,106.4,351.6,106.1
		 M351,95.9c0.1-1-0.6-1.8-1.6-1.9c-0.1,0-0.1,0-0.2,0c-0.7-0.1-1.4,0.4-1.5,1.1c0,0.1,0,0.2,0,0.3c0.1,1.2,0.6,2.3,1.2,3.3
		C349.7,98.3,351.1,97.3,351,95.9"/>
	<path class="st0" d="M366.6,108v-0.8v-9.8c0.1-0.8-0.1-1.5-0.5-2.2l0.2-0.4l4.2-0.1c2.1,0,4.6,1,4.6,4.1c0,2.5-2.4,4.2-5,4.2
		c-0.3,0-0.5,0-0.8,0c0,1.7,0,3.3,0.2,5L366.6,108z M369.3,101.8c0.2,0,0.5,0.1,0.7,0.1c1.3,0.1,2.5-1,2.5-2.3c0-0.1,0-0.2,0-0.3
		c0-1.7-0.9-3.4-2.8-3.2h-0.4c0,0.6,0,2-0.1,3.4L369.3,101.8z"/>
	<path class="st0" d="M377.7,108c0-2,0.1-3.9,0.1-5.6c0-3.5,0-6.2,0-6.2c0-1.4-0.6-2.1-1-2.3v-0.4c0.6-0.3,1.3-0.6,2-0.6
		c1.3,0,1.6,0.7,1.6,2c0,0.4,0,0.9-0.1,1.4c-0.1,1.3-0.1,3.3-0.1,5.2c-0.1,2.2,0,4.3,0.2,6.5L377.7,108z"/>
	<path class="st0" d="M391.9,107.2v0.4c-0.7,0.4-1.4,0.6-2.2,0.6c-0.8-0.1-1.5-0.7-1.7-1.4c-0.6,0.9-1.6,1.5-2.6,1.4
		c-2.1,0-3-1.3-3-2.6c0-1.9,1.9-3.1,4.2-3.1c0.4,0,0.8,0.1,1.2,0.2c0-0.4,0-0.8,0-1.2c0-1.4-0.2-2.6-1.4-2.6c-0.7,0-1.2,0.5-1.3,1.2
		c0,0.1,0,0.3,0.1,0.4c-0.3,0.3-0.7,0.4-1.1,0.4c-0.6,0-1.1-0.4-1.1-1c0,0,0,0,0-0.1c0-1.3,1.8-2.1,3.5-2.1c2.4,0,3.9,1,3.9,3.1
		c0,0.8,0,1.4,0,2.9c-0.1,1,0,1.9,0.2,2.9C390.8,107,391.3,107.3,391.9,107.2 M384.7,105.2c0,0.8,0.5,1.4,1.3,1.5c0,0,0,0,0,0
		c0.6,0,1.2-0.2,1.7-0.6c0-0.9,0-1.9,0-2.7C386.9,103.4,384.8,103.7,384.7,105.2"/>
	<path class="st0" d="M399.7,108c0-0.2-0.1-0.4-0.1-0.6c0-1.6,0-3.6,0-5.1c0-1.8-0.2-2.7-1.2-2.7c-0.9,0-1.7,0.4-2.4,1
		c0,0.9,0,3.9,0.1,5.9c0,0.5,0.1,1,0.2,1.6h-2.7v-0.6l0.1-6.1c0-2.2-1-2.4-1-2.4v-0.4c0.6-0.4,1.4-0.7,2.1-0.7
		c0.7,0,1.3,0.5,1.3,1.1v0.6c0.8-1,2-1.7,3.3-1.8c1.5-0.1,2.7,1.1,2.8,2.5c0,0,0,0.1,0,0.1c-0.1,2.6,0,5.1,0.2,7.7L399.7,108z"/>
	<path class="st0" d="M411.7,108c0-0.2-0.1-0.4-0.1-0.6c0-1.6,0-3.6,0-5.1c0-1.8-0.2-2.7-1.2-2.7c-0.9,0-1.7,0.4-2.4,1
		c0,0.9,0,3.9,0.1,5.9c0,0.5,0.1,1.1,0.2,1.6h-2.8v-0.6l0.1-6.1c0-2.2-1-2.4-1-2.4v-0.4c0.6-0.4,1.4-0.7,2.1-0.7
		c0.7,0,1.3,0.5,1.3,1.1v0.6c0.8-1,2-1.7,3.3-1.8c1.5-0.1,2.7,1.1,2.8,2.5c0,0,0,0.1,0,0.1c-0.1,2.6,0,5.1,0.2,7.7L411.7,108z"/>
	<path class="st0" d="M420.3,108h-2.8l0.1-6.8c0-2.2-1-2.4-1-2.4v-0.4c0.6-0.4,1.4-0.7,2.1-0.7c1.1,0,1.4,0.9,1.4,1.9
		c0,0.6-0.1,1.3-0.1,2.1v1.9C420.1,105.1,420.2,106.6,420.3,108 M418.7,93.9c0.7,0,1.3,0.6,1.3,1.4c0,0.7-0.6,1.3-1.3,1.3
		c-0.7,0-1.4-0.6-1.4-1.3C417.3,94.5,417.9,93.9,418.7,93.9L418.7,93.9"/>
	<path class="st0" d="M429.5,108c0-0.2-0.1-0.4-0.1-0.6c0-1.6,0-3.6,0-5.1c0-1.8-0.2-2.7-1.2-2.7c-0.9,0-1.7,0.4-2.4,1
		c0,0.9,0,3.9,0.1,5.9c0,0.5,0.1,1,0.2,1.6h-2.7v-0.6l0.1-6.1c0-2.2-1-2.4-1-2.4v-0.4c0.6-0.4,1.4-0.7,2.1-0.7
		c0.7,0,1.3,0.5,1.3,1.1v0.6c0.8-1,2-1.7,3.3-1.8c1.5-0.1,2.7,1.1,2.8,2.5c0,0,0,0.1,0,0.1c-0.1,2.6,0,5.1,0.2,7.7L429.5,108z"/>
	<path class="st0" d="M443.7,109.6c0,2.1-2.6,3.4-5,3.4c-2.3,0-4.4-0.8-4.4-2.3c0-0.7,0.6-1.2,1.3-1.2c0,0,0.1,0,0.1,0
		c0.5,0,0.9,0.2,1.2,0.6c-0.1,0.2-0.1,0.4-0.1,0.5c0,0.9,1,1.4,2.1,1.4c1.3,0,2.7-0.7,2.7-1.8s-1.3-1-2.6-1.1
		c-1.8-0.1-3.9-0.3-3.9-2.1c0-0.9,0.6-1.7,1.5-2c-1.1-0.7-1.9-1.9-1.9-3.2c0-2.3,1.9-4.2,4.2-4.2c0,0,0.1,0,0.1,0
		c0.8,0,1.6,0.2,2.2,0.7l0.4-0.4h1.5c0.4,0.1,0.8-0.1,1-0.4c0.1,0.2,0.1,0.4,0.2,0.7c0,0.7-0.6,1-1.3,1c-0.3,0-0.6-0.1-0.9-0.2
		c-0.1,0-0.2,0-0.3,0c0.7,0.7,1.2,1.6,1.2,2.6c0,2.2-1.7,4-3.9,4.1c-0.1,0-0.2,0-0.4,0c-0.6,0-1.1-0.1-1.6-0.2
		c-0.2,0.2-0.3,0.4-0.3,0.7C436.7,108,443.7,105.4,443.7,109.6 M437.2,101.1c0,2.1,0.7,3.6,1.9,3.6c0.8,0,1.5-0.9,1.5-2.3
		c0-2.2-0.7-3.7-1.9-3.7C437.6,98.8,437.2,100.2,437.2,101.1"/>
	<path class="st0" d="M452.1,108c0-0.3,0-0.8,0-1v-9.4c0.1-0.8-0.1-1.6-0.5-2.4l0.2-0.4l4.8-0.1c3.3-0.2,6.2,2.2,6.4,5.5
		c0,0.2,0,0.5,0,0.7c0,3.9-2.5,7-6.4,7L452.1,108z M460.1,102.1c0-3.4-1.9-6-4.4-5.9H455c0,0.9-0.1,4.5-0.1,6.9c0,1.4,0,2.6,0.1,3.7
		h2C458.5,106.7,460.1,105,460.1,102.1"/>
	<path class="st0" d="M472.8,102.6c-0.4,0.2-0.9,0.2-1.3,0.2l-4.4-0.1c0,0.2,0,0.5,0,0.7c-0.1,1.6,1.1,3,2.7,3.1c0,0,0,0,0,0
		c1.3,0,2.6-0.7,3.3-1.8c0.5,2.2-1.9,3.6-4.2,3.6s-4.3-1.4-4.4-4.8c0-3.2,1.8-5.7,4.5-5.7c3.8,0,3.9,3.2,3.9,4.2v0.5L472.8,102.6z
		 M467.1,101.8c1.2,0,2.3-0.1,3.5-0.1c0-1.2-0.5-2.6-1.7-2.6S467.4,100.3,467.1,101.8"/>
	<path class="st0" d="M475.7,112.8c0-0.3,0-1.4,0-2.4v-2.1c0-3.9,0.1-7.3,0.1-7.3c0-1.1-0.4-1.9-1-2.1v-0.4c0.6-0.4,1.3-0.7,2.1-0.7
		c1,0,1.4,0.5,1.4,1c0.6-0.6,1.5-1,2.3-1.1c2,0,4.1,1.6,4.1,5.1c0,2.7-1.7,5.5-5,5.5c-0.5,0-0.9-0.1-1.4-0.2c0,1.6,0,3.1,0.2,4.7
		L475.7,112.8z M478.3,99.6c0,1.6-0.1,3.6-0.1,6.2v1.1c0.5,0.1,1,0.2,1.6,0.2c1.8,0,2.2-2.3,2.2-3.8c0-2.5-1-4-2.5-4
		C479.1,99.3,478.7,99.4,478.3,99.6"/>
	<path class="st0" d="M495.5,107.2v0.4c-0.7,0.4-1.4,0.6-2.2,0.6c-0.8-0.1-1.5-0.6-1.7-1.4c-0.6,0.9-1.6,1.5-2.6,1.4
		c-2.1,0-3-1.3-3-2.6c0-1.9,1.9-3.1,4.2-3.1c0.4,0,0.8,0.1,1.2,0.2c0-0.4,0-0.8,0-1.2c0-1.4-0.2-2.6-1.4-2.6c-0.7,0-1.2,0.5-1.3,1.2
		c0,0.1,0,0.3,0.1,0.4c-0.3,0.3-0.7,0.4-1.1,0.4c-0.6,0-1.1-0.4-1.1-1c0,0,0,0,0-0.1c0-1.3,1.8-2.1,3.5-2.1c2.4,0,3.9,1,3.9,3.1
		c0,0.8,0,1.4,0,2.9c0,1,0,1.9,0.2,2.9C494.5,107.3,495.4,107.2,495.5,107.2 M488.3,105.2c0,0.8,0.5,1.4,1.3,1.5c0,0,0,0,0,0
		c0.6,0,1.2-0.2,1.7-0.6c0-0.9,0-1.9,0-2.7C490.5,103.4,488.4,103.7,488.3,105.2"/>
	<path class="st0" d="M497.3,108c0-1.2,0.1-4,0.1-6.8c0-2-0.8-2.3-1-2.4v-0.4c0.6-0.4,1.4-0.7,2.1-0.7c0.6-0.1,1.2,0.3,1.2,0.9
		c0,0.1,0,0.2,0,0.3c0,0.1-0.1,0.6-0.1,0.9c0.3-0.7,1.5-2.2,2.7-2.2s1.7,0.7,1.7,1.4c0,0.7-0.5,1.3-1.2,1.3c0,0,0,0-0.1,0h-0.2
		c-0.1-0.5-0.4-0.8-0.9-0.8c-1.6,0-1.9,1.8-1.9,3.8c0,1.6,0,3.1,0.3,4.6L497.3,108z"/>
	<path class="st0" d="M508.1,98h1.8c0.3,0,0.9-0.1,1-0.3c0,0.2,0.1,0.3,0.1,0.5c0,0.6-0.3,1.2-1.7,1.2c-0.3,0-1-0.1-1.3-0.1v4.5
		c0,1.1-0.1,2.7,1.2,2.7c0.7,0,1.8-0.3,2.1-0.7c0.5,1.3-1.1,2.5-2.8,2.5c-2.5,0-3-1.2-3-3.2c0-1.4,0.2-3,0.2-4.3
		c0-0.5,0-0.9-0.2-1.4c-0.2-0.3-0.6-0.6-1-0.7l0.1-0.6c0.1,0,1.1,0,2.1-1.7h1.6L508.1,98z"/>
	<path class="st0" d="M519.4,108c0-0.2,0-0.4,0-0.7c0-1.6,0-3.6,0-5.1c0-1.8-0.2-2.7-1.2-2.7c-0.9,0-1.7,0.4-2.4,1
		c0,0.9,0,3.9,0.1,5.9c0,0.5,0.1,1.1,0.2,1.6h-2.8v-0.6l0.1-6.1c0-2.2-1-2.4-1-2.4v-0.4c0.6-0.4,1.4-0.7,2.1-0.7
		c0.7,0,1.3,0.4,1.3,1.1v0.6c0.8-1,2-1.6,3.3-1.8c1.2-0.1,2.3,0.7,2.6,1.8c0.8-1,2-1.7,3.3-1.8c1.5-0.1,2.7,1.1,2.8,2.5
		c0,0,0,0.1,0,0.1c-0.1,2.6,0,5.1,0.2,7.7h-2.7c0-0.2-0.1-0.4-0.1-0.6c0-1.6,0-3.6,0-5.1c0-1.8-0.2-2.7-1.2-2.7
		c-0.8,0-1.6,0.3-2.2,0.9c-0.1,2.5,0,5.1,0.2,7.6L519.4,108z"/>
	<path class="st0" d="M538.4,102.6c-0.4,0.2-0.9,0.2-1.3,0.2l-4.4-0.1c0,0.2,0,0.5,0,0.7c-0.1,1.6,1.1,3,2.7,3.1c0,0,0,0,0,0
		c1.3,0,2.6-0.7,3.3-1.8c0.5,2.2-1.9,3.6-4.2,3.6s-4.3-1.4-4.4-4.8c0-3.2,1.8-5.7,4.5-5.7c3.8,0,3.9,3.2,3.9,4.2v0.5L538.4,102.6z
		 M532.7,101.8c1.2,0,2.3-0.1,3.5-0.1c0-1.2-0.5-2.6-1.7-2.6S533,100.3,532.7,101.8"/>
	<path class="st0" d="M547.4,108c0-0.2-0.1-0.4-0.1-0.6c0-1.6,0-3.6,0-5.1c0-1.8-0.2-2.7-1.2-2.7c-0.9,0-1.7,0.4-2.4,1
		c0,0.9,0,3.9,0.1,5.9c0,0.5,0.1,1.1,0.2,1.6h-2.8v-0.6l0.1-6.1c0-2.2-1-2.4-1-2.4v-0.4c0.6-0.4,1.4-0.7,2.1-0.7
		c0.7,0,1.3,0.5,1.3,1.1v0.6c0.8-1,2-1.7,3.3-1.8c1.5-0.1,2.7,1.1,2.8,2.5c0,0,0,0.1,0,0.1c-0.1,2.6,0,5.1,0.2,7.7L547.4,108z"/>
	<path class="st0" d="M555.7,98h1.8c0.3,0,0.9-0.1,1-0.3c0,0.2,0.1,0.3,0.1,0.5c0,0.6-0.3,1.2-1.7,1.2c-0.3,0-1-0.1-1.3-0.1v4.5
		c0,1.1-0.1,2.7,1.2,2.7c0.7,0,1.8-0.3,2.1-0.7c0.5,1.3-1.1,2.5-2.8,2.5c-2.5,0-3-1.2-3-3.2c0-1.4,0.2-3,0.2-4.3
		c0-0.5,0-0.9-0.2-1.4c-0.2-0.3-0.6-0.6-1-0.7l0.1-0.6c0.1,0,1.1,0,2.1-1.7h1.6L555.7,98z"/>
	<path class="st0" d="M337.9,67c0.8-0.2,1.6-0.4,2.5-0.5c3.4-0.7,6.8-1.1,10.3-1.5c1.4-2.6,1.9-3.7,1.8-4.6c0-0.1-6,0.5-6.5,0.5
		c-1.8,0.1-3.5,0.1-5.3,0.1c-3.6,0-7.2-0.2-10.8-0.6c-1.2-0.1-2.5-0.2-3.7-0.4c-3.7-0.4-3.8-0.7-3.6-0.7l0.5-0.4
		c1.6-1.4,3.8-2.8,4.7-4.8c0.8-1.8,0.7-5,3-5.6c0.2,0.2,0.3,0.4,0.4,0.7c0.2,0.9,0.5,1.7,0.7,2.6c0.2,0.9,0.5,1.7,1,2.5
		c0.7,0.9,1.6,1.6,2.6,2.1c0.6,0.3,1.3,0.5,1.9,0.5c1.6-0.1,3.2-0.6,4.6-1.5c0.6-0.4,1-0.9,1.4-1.5c0.5-0.9,0.8-1.8,1-2.8
		c0.1-0.7,0.3-1.5,0.4-2.2c0.1-1,0.2-2.1,0.2-3.1c0-1.2-0.1-2.3-0.2-3.5c-0.7-5.6-1.8-11.2-2.8-16.7c-0.4-2.2-0.9-4.5-1.4-6.7
		c-0.2-0.8-0.1-1.6,0.1-2.3c0.1-0.3,0.2-0.6,0.3-0.8c0.2-0.3,0.2-0.7,0-1.1c-0.5-1.2-1-2.5-1.5-3.8c-0.1-0.4-0.3-0.7-0.4-1.1
		s-0.2-0.7-0.5-0.8c-0.6-0.2-1.5,3.2-1.7,4.1c0,0.3,0,0.6,0.1,0.9c0.1,0.4,0.3,0.8,0.3,1.2c0.8,6.5,2.3,12.8,3.5,19.2
		c0.4,1.8,0.7,3.7,1,5.5c0.5,2.9,0.9,5.8,1.1,8.6c0,0.6,0,1.1,0,1.7c-1.6,2.2-4.6,2.9-7,1.6c-1.2-0.8-2.1-2-2.5-3.5
		c-0.4-1.4-0.4-3-1.5-4.1c-0.2-0.3-0.6-0.3-0.9-0.2c-0.5,0.2-0.9,0.6-1.2,1.1c-0.7,1.1-1.3,2.3-1.6,3.6c-0.5,1.5-1.3,2.9-2.5,4.1
		c-2,2-4.3,3.6-6.9,4.7c-1,0.4-1.9,0.9-2.8,1.4c-0.4,0.2-0.7,0.6-0.9,1c-0.4,1.2-0.9,2.3-1.3,3.5c-0.1,0.2-0.1,0.5-0.1,0.7
		c2.5-0.8,5.1-0.3,7.6,0c0.7,0.1,8.3,0.9,8.3,1.1c-0.1,0.4-2,1-2.6,1.3l-2.1,0.9c-1.4,0.6-2.9,1.3-4.3,1.9c-2.9,1.1-5.8,2.1-8.8,2.9
		c-2.3,0.6-4.6,1.1-7,1.4c-0.1,0-1,0.2-1.1,0.2c0-0.2,0.8-0.5,0.9-0.6c1.6-0.8,3.2-1.7,4.7-2.8c2-1.6,2.7-4,3-6.4
		c0.2-1.5-0.1-3-0.9-4.2c-1.6-2.2-5.6-3.3-8.6-2.4c-3.2,0.9-5.7,3-8.2,5.1c-0.3,0.3-0.6,0.5-1,0.7c0.1-0.3,0.3-0.5,0.4-0.7
		c0.4-1.1,0.7-2.1,0.9-3.2c0.4-3.9-0.1-8-0.6-11.8c-0.5-4.1-1.2-8.1-2-12.1c-0.4-2.3-0.8-4.6-1.3-6.9c-0.7-3.4-1.1-6.5-1.7-9.7
		c-0.1-0.4-0.1-0.9,0.1-1.3c0.2-0.5,0.4-1,0.6-1.5s0.5-0.9,0.3-1.4c-0.3-0.7-0.7-1.4-1-2.1s-1.5-3.2-1.7-3.5
		c-0.4-0.4-0.7,0.3-0.8,0.6c-0.2,0.6-0.5,1.2-0.7,1.9c-0.2,0.5-0.3,0.9-0.5,1.4c-0.2,0.3-0.2,0.7,0,1.1c0.3,0.8,0.5,1.6,0.5,2.4
		c0,0.3,0,0.5,0.1,0.8c0.3,1.9,0.7,3.8,1,5.6c0.6,3.3,1.2,6.5,1.8,9.8c0.4,2.1,0.8,4.3,1.2,6.4c0.5,2.8,1,5.5,1.5,8.3
		c0.5,3,0.9,6,1.2,9c0.2,2.4,0.2,4.9-0.1,7.3c-0.1,0.5-0.3,0.9-0.6,1.3c-1.1,1.1-2.3,2.1-3.3,3.4c0,0.1-0.1,0.1-0.2,0.1
		c-0.6,0.7-1.2,1.3-1.8,2s-1.3,1.5-2,2.3c-0.5,0.6-0.5,0.6-1.3,0.5c-1-0.3-1.9-0.8-2.7-1.5c-1.1-0.9-1.9-2.1-2.4-3.4
		c-0.4-1.1-0.5-2.2-0.3-3.3c0-0.3,0-0.7,0-1c0-0.6-0.2-0.9-0.9-0.8c-3.1,0.5-5.9,2.2-8.8,3.4c-2.4,1-4.7,2.1-7.1,3.1
		c-2,0.8-4,1.6-6.1,2.2c-0.7,0.3-1.4,0.5-2.2,0.6c2.3-1.5,4-2.9,5-5.3c0.8-1.9,1.2-4.2,0.2-6.1c-1.9-3.6-7.4-4.3-11.2-2.4
		c-1.4,0.7-2.7,1.5-3.9,2.5c-1.2,0.8-2.3,1.7-3.3,2.7c-0.1-0.4,0.1-0.6,0.2-0.9c1.8-4.2,1.6-8.9,1.1-13.3c-0.1-1.3-0.3-2.5-0.5-3.8
		c-0.8-5.8-1.7-11.6-2.6-17.3c-0.4-2.2-0.6-4.3-1-6.5c-0.2-1-0.4-2-0.5-3c0.1-0.9,0.3-1.8,0.7-2.5c0.1-0.5,0.3-1,0.4-1.5
		c0.1-0.3,0.1-0.6,0-0.9c-0.5-1.1-1-2.1-1.4-3.2c-0.2-0.5-0.4-1-0.6-1.4s-0.2-0.7-0.5-1c-0.1,0.1-0.2,0.1-0.3,0.2
		c-0.5,1.3-1,2.6-1.5,4c-0.1,0.3-0.1,0.7,0,1c0.2,0.8,0.3,1.5,0.4,2.3c0.3,1.8,0.5,3.7,0.8,5.6c0.5,3,1,6.1,1.5,9.1
		c0.3,1.6,0.5,3.3,0.7,4.9c0.3,2,0.7,4,1,6.1c0.5,2.9,0.9,5.8,1.3,8.7c0.3,2,0.4,3.9,0.6,5.9c0.1,2.1,0,4.3-0.3,6.4
		c0,0.4-0.1,0.9-0.2,1.3c-0.2,0.8-0.5,1.5-1,2.1c-1.3,1.3-2.6,2.7-3.9,4.1l-1.9,2c-0.2,0.2-1.3,1.8-1.6,1.8c-4.6,0.1-9.1,0-13.7-0.4
		c-0.1,0-0.1,0-0.2,0c-0.2,0.1-0.3,0.3-0.3,0.5c0,0,0,0,0,0.1c0.1,0.1,0.2,0.2,0.3,0.3c0.7,0.4,1.3,0.8,2,1.2c1.5,0.7,3,1.4,4.5,2.1
		c2.2,1,4.9,0.9,7.3,0.9c2.6,0,5.3-0.1,7.9-0.3c1.5-0.1,3-0.2,4.5-0.4c5-0.4,9.9-1.4,14.6-3c5.3-1.8,10.3-4.3,15.4-6.6
		c0.6-0.3,1.3-0.5,1.9-0.7c0.8-0.4,1.3,0,1.5,0.8c0,0.2,0.1,0.4,0.1,0.6c0.2,3.3,2.1,6.3,5,7.9c1.9,1.1,4,1.7,6.2,1.8
		c4.6,0.4,9.2,0.4,13.8,0c5.1-0.5,10.1-1.7,14.9-3.6c1.3-0.5,2.7-1,4-1.6c1.5-0.6,3.1-1.2,4.6-1.8c2.6-1,5.1-2,7.7-3
		C334.4,67.9,336.1,67.4,337.9,67 M249.9,69.9c-2.1,0.8-4.3,1.5-6.5,2c-2.5,0.7-5,1.2-7.5,1.6c-0.6,0.1-1.2,0.1-1.8,0.1
		c0.4-0.4,0.7-0.6,0.9-0.9s0.5-0.6,0.8-0.8c0.6-0.6,1.1-1.2,1.7-1.8c1.1-1.2,2.3-2.3,3.6-3.3c1.3-1,2.7-2.1,4-3
		c1.2-0.8,2.6-1.4,4-1.8c1.4-0.4,2.8-0.3,4.2,0.1c1.5,0.4,2.8,1.3,3.7,2.5c0.2,0.3,0.5,0.6,0.8,0.9c-0.5,0.7-1.2,1.2-2,1.5
		C253.8,68.1,251.8,69.1,249.9,69.9 M303.6,69.7c-1.5,0.7-3.1,1.3-4.7,1.8c-1,0.3-2.1,0.6-3.1,0.9c-1.8,0.5-3.6,0.8-5.4,0.9
		c-0.9,0-1.7,0.1-2.6,0.1c-0.1,0-0.2,0-0.3-0.1c0-0.1,0-0.2,0-0.2l3-3.2c0.6-0.7,1.2-1.4,1.9-2.1c0.9-0.9,1.9-1.7,2.9-2.5
		c1-0.8,2-1.5,3.1-2.1c0.7-0.5,1.5-0.9,2.4-1.2c2.1-0.8,4.4-0.6,6.3,0.4c1.1,0.6,2.2,1.3,3.1,2.2c0.1,0.2,0.3,0.3,0.4,0.5
		c-0.2,0.7-0.6,1.4-1.3,1.7c-0.9,0.5-1.7,1-2.6,1.5S304.6,69.2,303.6,69.7"/>
	<path class="st0" d="M478.7,60.4c0.4-4.2-0.2-8.5-0.6-12.7c-0.5-4.3-1.1-8.6-1.8-12.9c-0.4-2.4-0.8-4.9-1.2-7.3
		c-0.3-1.9-0.6-3.7-0.9-5.6c-0.2-1.5-0.8-3.4,0-4.7c0.1-0.1,0.1-0.3,0.2-0.4c0.1-0.3,0.2-0.7,0.1-1c-0.4-1.7-1-3.3-1.5-4.9
		c-0.2-0.7-0.3-1.4-1.1-1.7c-0.3,0.5-0.6,1-0.7,1.6c-0.2,0.6-0.5,1.2-0.7,1.8c-0.1,0.2-0.1,0.5-0.1,0.8c0.2,1.1,0.4,2.2,0.4,3.4
		c0.2,1.3,0.4,2.6,0.5,3.9c0.4,2.7,0.8,5.3,1.2,7.9c0.2,1.5,0.4,3,0.7,4.5c0.9,5.6,1.8,11.2,2.5,16.8c0.5,3.8,0.8,7.6,1.1,11.4
		c0.2,2.4-3.3,3.6-5.2,3.8c-2.9,0.2-5.3-2-5.5-4.9c0-0.1,0-0.2,0-0.3c0-0.3,0.1-0.7,0-1s-0.1-0.7-0.5-0.5c-0.6,0.3-1.2,0.9-1.5,1.5
		c-0.4,0.7-0.8,1.3-1.1,2.1c-0.2,0.4-0.5,0.9-0.7,1.3c-0.4,1.1-1.2,2-2.1,2.8c-1.8,1.4-4.2,1.8-6.4,1c-5.3-2.2-5.5-9.3-5.8-14.3
		c-0.2-4-0.5-8.1-0.9-12.1c-0.2-2.2-0.3-4.4-0.7-6.6c-0.2-1.1-0.1-2.2-0.2-3.3c-0.2-1.9-0.4-3.8-0.6-5.8c-0.1-0.9-0.2-1.7-0.3-2.6
		c-0.2-1.3-0.4-2.7-0.6-4.1c-0.3-1.6-0.5-3.1-0.8-4.7c-0.2-1-0.4-1.9-0.7-2.9c-0.1-0.6-0.3-1.1-0.5-1.6c-0.1-0.1-0.1-0.3-0.2-0.4
		c-0.1,0.2-0.2,0.4-0.3,0.6c-0.3,1.1-0.6,2.3-0.8,3.4c-0.1,0.7-0.1,1.3,0,2c0.2,0.8,0.3,1.6,0.4,2.3c0.3,2.3,0.6,4.7,0.9,7
		c0.3,2.4,0.5,4.8,0.8,7.1s0.3,4.6,0.5,6.8c0,0.4,0.1,0.8,0.1,1.2c0.1,0.9,0.2,1.7,0.3,2.6c0.1,1.5,0.2,3,0.3,4.4s0.3,3.1,0.4,4.6
		c0.1,1.3,0.2,2.6,0.3,4c0.2,2.4,0.4,4.8,0.5,7.2c0.1,1.6,0.3,3.2,0.4,4.8c0.1,1,0.1,2.1,0.1,3.1c0,0.8-0.3,1.5-0.9,2
		c-0.6,0.5-1.2,0.9-1.9,1.2c-1.7,0.8-3.5,1.1-5.3,0.8c-0.8-0.2-1.5-0.5-2.1-1c-1.1-0.9-1.9-2.1-2.2-3.5c-0.8-2.6-1.1-5.4-1.1-8.1
		c0.1-2.7,0-5.3-0.1-8c0-0.9-0.6-4.4-0.9-5.6c-0.4-1.6-1.8-6-2.1-6.6s-0.5-1.3-0.8-1.9c-0.5-1-0.9-1.9-1.4-2.8
		c-0.4-0.7-0.8-1.4-1.2-2.1c-0.1-0.2-0.3-0.4-0.5-0.5c-0.1,0.1-0.2,0.3-0.2,0.4c-0.2,1-0.5,2.1-0.7,3.1c-0.1,0.5-0.1,1.1,0,1.6
		c0.7,2,1.3,4.1,2,6.2v0.1c0.2,0.6,0.5,1.3,0.6,1.9c0.4,1.3,0.7,2.7,1.1,4.1c0.4,1.5,0.8,3,1.1,4.5s0.4,2.9,0.6,4.4
		c0.2,0.9-0.1,1.8-0.8,2.4c-0.3,0.3-0.7,0.6-1,0.9c-1.5,1.5-3.1,2.8-4.8,4c-1.7,1.2-3.4,2.4-5.1,3.5c-1.5,0.9-3.1,1.8-4.8,2.5
		c-1.4,0.6-3,0.8-4.6,0.6c-1.6-0.2-2.9-1.5-3.1-3.1c-0.2-0.7-0.2-1.3-0.3-2c0-1,0.4-2,1.1-2.7c0.6-0.7,1.2-1.5,1.7-2.2
		c0.7-1,1.4-1.9,2.3-2.8c0.3-0.3,0.6-0.5,1-0.7c0.2-0.1,0.5,0,0.7,0.2c0.1,0.2,0.1,0.4,0,0.6c-0.2,0.9-0.5,1.6-0.7,2.5
		c-0.1,0.6-0.2,1.3-0.3,1.9c0,0.1,0.1,0.2,0.2,0.2s0.3-0.1,0.3-0.2c0.2-0.6,0.3-1.2,0.5-1.9c0.3-1.2,0.8-2.3,1-3.5
		c0.3-1.1,0.3-2.2,0.1-3.3c-0.1-0.5-0.3-0.9-0.7-1.2c-0.4-0.3-1.6,0.2-1.9,0.5c-0.6,0.5-1.1,1.1-1.6,1.6c-0.5,0.6-0.9,1.3-1.5,1.9
		c-0.9,1.2-2,2.2-3.2,3c-2.6,1.3-5.7,0.6-7.6-1.5c-0.8-0.9-1.4-2-1.8-3.1c-0.3-0.7-0.7-2-1.5-2.2c-1.1-0.3-2.4,0.8-3.2,1.3
		c-0.9,0.7-1.7,1.4-2.4,2.3c-1.6,2-2.7,4.2-3.4,6.6c-1,2.9-3,9.9-7.4,7c-2.8-1.8-3.6-6.4-3.6-9.4c0-0.9,0.8-1.4,1.4-2
		c0.7-0.7,1.2-1.6,1.6-2.5c0.8-1.7,1.2-3.6,1.2-5.5c0.2-3.6-0.9-7.2-3.1-10.1c-1.2-1.6-2.9-3.1-5-2.8c-3.5,0.5-7.2,7.2-4.2,10.5
		c0.8,0.8,1.9,1.3,3.1,1.4c1.6,0.3,3.2-0.1,4.8,0.3c1.2,0.3,2.2,1.2,2.6,2.4c0.3,0.6,0.2,1.4-0.4,1.8c-3.2,3-6.7,5.6-10.6,7.8
		c-1.1,0.7-2.2,1.3-3.3,1.9c-4.8,2.9-9.8,5.4-15,7.6c-1.5,0.6-3,1.1-4.5,1.6c-0.7,0.2-1.4,0.5-2.1,0.8c-0.4,0.2-0.8,0.3-1.2,0.5
		c-0.1,0-1,0.7-0.8,0.7c0.6,0.2,1.2,0.2,1.7,0c1.2-0.2,2.3-0.5,3.5-0.6c1.1-0.2,2.3-0.3,3.4-0.4c5.3-0.9,10.1-3.3,14.7-5.9
		c1.3-0.8,2.6-1.6,3.9-2.4c2.2-1.4,4.3-2.9,6.5-4.4c0.1-0.1,0.2-0.1,0.4-0.2c0.1,0.2,0.1,0.3,0.1,0.5c0.1,3.9,0.2,7.7,2.7,11
		c0.9,1.2,2.6,2.5,3.7,2.5c3.9,0.1,5.9-7.8,7.4-11.1c1.2-2.6,3.1-5.1,5.7-6.4c0.3-0.2,0.7-0.2,1-0.1c0.1,0.2,0.2,0.4,0.3,0.7
		c0.8,2.2,2.4,4.1,4.4,5.4c2.6,1.5,4.2,0.8,6.5,0.5c0,0.1,0,0.3-0.1,0.4c-0.4,1.5-0.5,3.1-0.5,4.6c0.1,1.2,0.5,2.3,1,3.3
		c1,1.9,3,2.5,5,2.5c5-0.2,9.4-3.6,13.1-6.8c2.3-1.8,4.4-3.7,6.4-5.8c0.4-0.4,0.6-0.9,0.7-1.4c0.1-0.4,0.3-1,0.4-1.6
		c0.1,0.4,0.2,0.8,0.2,1.3c0.3,3.3,0.1,6.5,1.4,9.7c1,2.6,3,4.6,5.8,4.7c2.1,0,6.5-1.1,8.2-4.5c1.1-2.3,1.8-4.8,2-7.3
		c0,0,0.1,0.1,0.1,0.1c0,0.1,0.1,0.1,0.1,0.2c0,0.1,0.1,0.2,0.1,0.3c0.1,0.3,0.3,0.5,0.5,0.8c0.3,0.3,0.5,0.6,0.8,0.9
		c0.3,0.3,0.6,0.6,0.9,0.8c0.6,0.5,1.2,0.9,1.9,1.2c0.6,0.3,1.3,0.5,2,0.6c0.7,0.1,1.4,0.1,2.1,0c0.7-0.1,1.4-0.4,2-0.6l0.2-0.1
		c1-0.7,1.9-1.5,2.6-2.4c1.1-1.3,1.2-3.4,2.4-4.5c0.1-0.1,0.3-0.2,0.4-0.3c-0.4,0.2,1.3,3,1.5,3.3c0.8,1,1.8,1.8,3.1,2.1
		c2.3,0.7,4.8,0,6.4-1.7c1.7-2,2.8-4.5,2.9-7.2 M369.8,48.5c-0.9,0.1-1.7-0.3-2.3-1c0.6-0.8,1.4-1.5,2.4-1.8c0.1,0,0.3,0,0.4,0
		c0.3,0.1,0.6,0.2,1,0.4c1.1,0.6,2,1.5,2.7,2.5C372.6,48.6,371.1,48.6,369.8,48.5"/>
	<path class="st0" d="M489.9,65.2c0.1,1.2,0,2.5-0.2,3.7c-0.1,0.6-0.2,1.3-0.4,1.9c-0.1,0.2-0.1,0.5,0,0.8c0.1,0.1,0.2,0.2,0.3,0.2
		c0.1,0,0.3-0.1,0.3-0.2c0.3-0.6,0.6-1.1,0.8-1.7c0.4-1,0.7-2.1,0.9-3.2c0.5-2.6,0.6-5.2,0.4-7.8c-0.1-3-0.5-5.9-0.9-8.8
		c-0.2-1.3-1.1-7.5-2-13.9c-1-6.8-2-13.8-2.1-14.6s-0.2-1.6-0.4-2.5c-0.3-1.8-0.2-2,0.6-3.7c0.2-0.4,0.2-0.9,0-1.3
		c-0.8-1.5-1.4-3-2.1-4.5c-0.1-0.2-0.3-1.2-0.7-1S484.1,9,484,9.2c-0.5,1.1-1,2.3-1.3,3.4c0.1,0.8,0.3,1.5,0.4,2.1
		c0.1,0.9,0.2,1.8,0.4,2.7c0.2,1.1,0.3,2.1,0.5,3.2c0.3,2.1,0.6,4.2,0.9,6.3c0.1,0.7,0.2,1.4,0.3,2.1c0.3,2.3,0.7,4.6,1,6.9
		c0.3,2.3,0.7,4.6,1.1,6.9s0.7,4.4,1,6.5c0.2,1.7,0.4,3.4,0.7,5.1C489.5,58.1,489.8,61.6,489.9,65.2"/>
	<path class="st0" d="M351,14.3c0.2,1.8,0.4,3.6,0.7,5.3c0.4,2.8,0.9,5.5,1.3,8.3c0.4,2.5,0.8,5,1.2,7.5c0.5,3.2,1,6.5,1.5,9.8
		c0.3,1.9,0.5,3.8,0.7,5.7c0.5,3.3,0.7,6.7,0.6,10c0.1,1.8-0.2,3.6-0.8,5.3c-0.1,0.1,0,0.3,0.1,0.4c0,0,0.1,0,0.1,0
		c0.2,0,0.4,0,0.5-0.1c0.2-0.3,0.4-0.6,0.5-1c0.7-1.8,1.2-3.6,1.4-5.5c0.2-2,0.3-4,0.2-5.9c0-2.3-0.2-4.7-0.6-7
		c-0.2-1.6-0.4-3.3-0.6-4.9c-0.3-2.3-0.7-4.6-1-6.9c-0.5-3.4-1-6.9-1.5-10.3c-0.3-1.9-0.6-3.8-0.9-5.6c-0.1-0.5-0.1-1.1-0.1-1.6
		c0-0.7,0.2-1.3,0.5-1.9c0.2-0.3,0.3-0.6,0.3-0.9c0-0.3-0.1-0.7-0.2-1c-0.8-1.5-1.4-3.1-2-4.8c-0.1-0.2-0.2-0.6-0.5-0.5
		S352.1,9,352,9.2l-0.3,0.9c-0.2,0.7-0.5,1.3-0.8,2c-0.2,0.5-0.2,1,0,1.4c0.1,0.3,0.1,0.6,0.2,0.9"/>
	<path class="st0" d="M361.8,32.7c0.2-0.2,0.3-0.3,0.4-0.5c0.2-0.4,0.5-0.7,0.9-0.8c0.3-0.2,0.6-0.4,1-0.6c2.2-1.3,4.5-2.4,6.8-3.4
		c2.4-1.1,4.7-2.2,7.1-3.3c1.6-0.8,3.2-1.6,4.9-2.3c3-1.3,6.1-2.6,9.1-3.8c0.9-0.4,1.8-0.7,2.7-1c0.6-0.2,1-0.6,1.2-1.2
		c0.1-0.4,0.2-1.9,0-1.9c-0.2,0.1-0.4,0.2-0.6,0.3c-1.7,0.7-3.3,1.4-5,2.1c-1.9,0.8-3.8,1.5-5.7,2.3c-0.9,0.4-1.8,0.8-2.7,1.2
		c-2.2,0.9-4.4,1.9-6.5,2.9c-1.7,0.9-3.5,1.6-5.3,2.4c-1.1,0.5-2.2,1.2-3.3,1.6s-1.9,1-2.9,1.5c-0.5,0.2-1,0.6-1.2,1.1
		c-0.4,0.8-0.8,1.7-1.1,2.6c-0.1,0.3-0.1,0.6-0.1,0.9C361.4,32.8,361.7,32.9,361.8,32.7"/>
	<path class="st0" d="M255.7,10.9c0.3-0.8,0.9-0.8,1.4-0.3c0.2,0.3,0.5,0.6,0.8,0.8c0.2,0.1,0.3,0.3,0.5,0.4
		c0.3-0.7,0.6-1.4,0.6-2.1c-0.5-0.5-0.9-1-1.4-1.5c-0.3-0.4-0.9-0.4-1.3-0.1c0,0-0.1,0.1-0.1,0.1c-0.5,0.4-0.9,1-1.1,1.6
		c-0.4,1.2-0.7,2.4-0.8,3.6c-0.1,0.5-0.1,0.9-0.3,1.4c-0.2-0.4-0.3-0.6-0.4-0.8c-0.5-1-1-1.9-1.5-2.9c-0.3-0.6-0.8-1-1.4-1.3
		c-0.5-0.3-0.9-0.2-1.1,0.4c-0.2,0.6-0.3,1.2-0.5,1.8c-0.1,0.5,0.2,1,0.6,1.2l2.1,0.9c0.6,1.1,1.1,2.2,1.5,3.4
		c-0.8,1.2-1.2,2.3-0.8,3.1c0.4-0.2,0.4-0.6,0.6-0.9c0.1-0.3,0.4-0.5,0.6-0.7c0.1-0.1,0.2-0.1,0.3-0.1c0.3,0,0.6,0.2,0.8,0.5
		c0.1,0.1,0.1,0.2,0.1,0.3c-0.2,0.1-0.5,0.2-0.7,0.3c-2,1-3,3.3-2.4,5.5c0.1,0.3,0.2,0.7,0.3,1c0.7,2,1.4,4.1,2,6.2
		c0.4,1.3,0.6,2.7,0.8,4.1c0.2,1.8,0.3,3.6,0.2,5.4c0,0.3,0,0.5,0,0.8c0,0.1,0.1,0.2,0.3,0.3c0.1,0,0.3-0.1,0.4-0.2
		c0.1-0.1,0.1-0.2,0.1-0.3c0.2-1.3,0.3-2.5,0.3-3.8c-0.1-0.5,0-1,0-1.5c0-0.8-0.1-1.6-0.2-2.3c-0.2-1-0.4-1.9-0.6-2.8
		c-0.3-1.3-0.6-2.6-1-3.9c-0.3-1.3-0.7-2.6-1.3-3.8c-0.2-0.5-0.3-0.9-0.4-1.4c0.6-0.7,1.3-1.2,2.1-1.4c0.6-0.2,1.3-0.2,1.9-0.1
		c0.5,0.1,0.7,0,0.9-0.5s0.3-0.8,0.4-1.2c-0.3-0.4-0.6-0.9-0.9-1.3c-0.3-0.4-0.7-0.8-1.1-1.1c-0.4-0.3-0.8-0.6-1.2-0.8
		c0.1-1.2,0.2-2.3,0.4-3.5c0.1-0.9,0.3-1.7,0.6-2.5"/>
	<path class="st0" d="M266.9,49.4c0.1,0,0.2,0,0.3,0c1.5-0.5,3.1-0.9,4.6-1.4c0.6-0.2,1.1-0.5,1.6-0.8c0.7-0.5,1.2-1.1,1.8-1.7
		c0.9-1.2,1.8-2.5,2.7-3.7c0.2-0.3,0.3-0.5,0.4-0.8c0.2-0.7,0.1-1.1-0.6-1.4c-0.6-0.2-1.3-0.4-1.9-0.5c-1.4-0.2-2.8-0.3-4.2-0.2
		c-0.5,0-1,0.1-1.4,0.2c-0.6,0.1-1.1,0.5-1.4,1.1c-0.5,0.9-0.9,1.8-1.4,2.7c-0.1,0.2-0.2,0.5-0.3,0.7c-0.1,0.3,0.1,0.5,0.5,0.5
		c0.1-0.1,0.2-0.1,0.2-0.2c0.3-0.6,0.9-1,1.5-1c1.8-0.2,3.7-0.2,5.5,0.2c0.2,0.1,0.5,0.2,0.8,0.3c-0.3,0.3-0.5,0.5-0.8,0.8
		c-0.7,0.5-1.5,1-2.2,1.5c-1.7,1-3.4,1.9-5.1,2.9c-0.2,0.1-0.3,0.2-0.5,0.3c-0.2,0.2-0.2,0.4,0,0.6
		C266.8,49.4,266.9,49.4,266.9,49.4"/>
	<path class="st0" d="M331.3,33.5l-1.2,1.4c-0.5,0.9-1.4,1.5-2.5,1.5c-0.1,0-0.1,0-0.3-0.1c-0.2-0.2-0.4-0.4-0.6-0.6
		c-0.8-0.7-1.6-1.6-2.3-2.4c-0.2-0.3-0.5-0.3-0.8,0c-0.6,0.8-1.2,1.5-1.8,2.3s-0.5,0.9,0.1,1.6s1.3,1.4,2,2.1
		c0.3,0.3,0.6,0.6,0.9,0.9c0.2-0.2,0.4-0.3,0.5-0.5c0.6-0.8,1.3-1.6,1.9-2.3s1-0.7,1.6,0c0.8,0.9,1.5,1.8,2.3,2.7
		c0.2,0.2,0.3,0.3,0.5,0.4c0.2-0.1,0.4-0.3,0.5-0.5c0.6-0.7,1.2-1.4,1.8-2.2c0.1-0.1,0.1-0.2,0.2-0.3c0-0.1,0.1-0.1,0.1-0.2
		c0.1-0.3,0-0.6-0.2-0.8c-0.6-0.6-1.1-1.2-1.6-1.9C332.3,34.3,331.9,33.9,331.3,33.5"/>
	<path class="st0" d="M391.3,44l-0.8,0.3c-0.6-0.5-1.2-1-1.8-1.5c-0.6-0.6-1.2-1-1.9-1.4c-0.2,0.2-0.4,0.5-0.5,0.7
		c-0.5,0.8-0.9,1.6-1.3,2.3c-0.3,0.5-0.3,0.7,0.2,1.1c0.9,0.8,1.8,1.6,2.7,2.3c0.2,0.1,0.4,0.3,0.6,0.4c0.3-0.5,0.6-0.9,0.9-1.3
		s0.7-1.1,1.1-1.7s0.6-0.5,1-0.1c1.1,0.9,2.2,1.9,3.2,2.9c0.8-1.2,1.7-2.4,2.5-3.8c-1.2-1.1-2.5-2.2-3.8-3.1
		C392.4,42,392.1,43.1,391.3,44"/>
	<path class="st0" d="M269.8,74.9l-2.9-1.8c-0.4-0.3-0.8-0.5-1.3-0.5c-0.5,1-1,2-1.5,3c-0.2,0.3-0.1,0.6,0.1,0.8c0,0,0.1,0,0.1,0.1
		c0.9,0.6,1.8,1.1,2.6,1.7c0.2,0.1,0.5,0.2,0.7,0.2c0.1-0.1,0.2-0.2,0.3-0.3l1.1-1.8c0.5-0.8,0.6-0.9,1.4-0.4s1.6,1,2.3,1.6
		c0.3,0.2,0.7,0.3,1,0.1l0.5-0.9c0.4-0.7,0.8-1.4,1.2-2c0.1-0.2,0.2-0.5,0.2-0.7c-1.3-0.8-2.4-1.8-3.8-2.5
		C271.1,72.7,270.8,74,269.8,74.9"/>
	<path class="st0" d="M404.8,37.9c0,0.9,0.6,1.6,1.5,1.7c0.7,0.2,1.5-0.1,1.9-0.8c0.2-0.3,0.3-0.7,0.6-1.2c0.2,0.3,0.4,0.6,0.5,0.8
		c0.4,0.5,1,0.9,1.6,0.8c0.6,0.1,1.2-0.3,1.4-0.9c0.5-0.9,0.6-2,0.3-3.1c-0.2-0.5-0.4-1-0.6-1.6c-0.5-0.8-0.9-1.7-1.2-2.7
		c-0.1-0.2-0.2-0.3-0.3-0.5c-0.5,0.7-0.6,1.6-0.3,2.4c0.1,0.5,0.3,0.9,0.5,1.4c0.2,0.5,0.5,1.1,0.8,1.6c0.2,0.2,0.2,0.6,0.1,0.8
		c-0.9,0.1-1.4,0-1.8-0.8c-0.2-0.4-0.3-0.8-0.4-1.2c-0.2-1.1-0.6-2.1-1-3.1c-0.1-0.2-0.3-0.3-0.5-0.5c-0.5,0.7-0.7,1.7-0.4,2.5
		c0.3,0.7,0.5,1.5,0.7,2.2c0.1,0.5-0.2,1.1-0.8,1.2c-0.1,0-0.3,0-0.4,0c-0.6-0.1-1-0.5-1.2-1c-0.1-0.2-0.1-0.4-0.1-0.6
		c-0.1-0.8-0.1-1.6-0.2-2.3c0-0.5-0.4-1-0.9-1.2c-0.1,0.3-0.2,0.6-0.3,0.8c-0.3,0.6-0.2,1.4,0.1,1.9c0.1,0.3,0.2,0.6,0.2,0.9
		C404.8,36.5,404.8,37.2,404.8,37.9"/>
	<path class="st0" d="M324.4,20.9c-0.1-0.1-0.2-0.2-0.3-0.3c-0.5,0.7-0.7,1.7-0.4,2.5c0.1,0.5,0.1,1,0.1,1.6c0,0.8,0,1.7,0.1,2.5
		c0.1,0.8,0.7,1.4,1.5,1.4c0.7,0.1,1.4-0.3,1.8-0.9c0.1-0.3,0.3-0.5,0.4-0.8c0.1-0.2,0-0.4,0.3-0.4c0.4,0.4,0.7,0.8,1.1,1.1
		c0.6,0.5,1.4,0.4,1.9-0.1c0.1-0.1,0.2-0.3,0.3-0.5c0.1-0.4,0.2-0.9,0.3-1.3c0.2-0.8,0.2-1.6-0.1-2.3c-0.4-1.2-0.8-2.3-1.3-3.5
		c-0.1-0.3-0.3-0.6-0.4-0.8c-0.5,0.7-0.6,1.5-0.3,2.3c0.3,0.9,0.6,1.8,0.9,2.8c0.1,0.3,0.2,0.7,0.4,1.1c0,0.2-0.1,0.4-0.3,0.4
		c0,0-0.1,0-0.1,0c-0.3,0-0.5,0-0.7-0.2c-0.4-0.2-0.7-0.6-0.8-1c-0.2-0.5-0.3-0.9-0.4-1.4c-0.1-1-0.4-2-0.8-2.9
		c-0.1-0.2-0.2-0.3-0.5-0.3c-0.5,0.8-0.6,1.8-0.3,2.7c0.2,0.4,0.4,0.9,0.5,1.4c0.2,0.5,0.2,1,0,1.4c-0.2,0.2-0.4,0.4-0.7,0.6
		c-0.5,0.4-1.2,0.3-1.6-0.2c-0.1-0.1-0.1-0.1-0.1-0.2c-0.3-0.6-0.3-1.2-0.1-1.9C324.9,22.8,324.8,21.8,324.4,20.9"/>
	<path class="st0" d="M457.2,16.2c1.3-0.7,2.6-1.4,3.9-2c2.3-1.1,4.5-2.1,6.8-3.1c0.8-0.3,1.2-1.2,1-2.1c-0.3,0.1-0.6,0.2-0.9,0.3
		l-3.2,1.4c-1.5,0.7-3,1.3-4.5,2c-2.2,1.1-4.4,2.3-6.6,3.5c-1.4,0.7-2.8,1.6-4,2.7c-0.7,0.6-1.1,1.6-1,2.5c1-0.9,2.1-1.7,3.3-2.4
		C453.7,18.1,455.5,17.1,457.2,16.2"/>
	<path class="st0" d="M311.9,46.2c1.3,1.1,2.6,2.2,3.9,3.5c0.2-0.1,0.3-0.1,0.4-0.3c0.8-1.1,1.5-2.2,2.2-3.3
		c-1.3-1.4-2.7-2.6-4.3-3.5C313.3,43.8,312.5,45,311.9,46.2"/>
	<path class="st0" d="M464.8,71.2c-0.1-0.1-0.2-0.1-0.3-0.1c0,0-0.1,0-0.1,0c-0.9,1.1-1.5,2.4-1.9,3.7c1.1,1.1,2.5,1.9,3.7,2.9
		c0.1,0.1,0.3,0.2,0.5,0.2c0.4-0.6,0.8-1.2,1.1-1.8c0.4-0.6,0.7-1.2,1-1.8c-0.1-0.1-0.1-0.2-0.2-0.3L464.8,71.2"/>
	<path class="st0" d="M227,44.7c0.4,0.6,1.2,0.8,1.7,0.4c0.1-0.1,0.2-0.1,0.3-0.2c0.3-0.3,0.5-0.6,0.6-0.9c0.3-0.9,0.6-1.9,0.8-2.8
		c0-0.2,0-0.4,0-0.5c-0.2,0.1-0.4,0.2-0.4,0.3c-0.1,0.3-0.2,0.6-0.3,0.8c-0.2,0.3-0.4,0.7-0.6,0.9c-0.4,0.4-0.8,0.4-1.1-0.1
		c-0.5-0.6-0.7-1.4-0.6-2.2c0.1-1.3,0.3-2.6,0.7-3.8c0.3-0.6,0.4-1.2,0.3-1.8c-0.2,0.2-0.3,0.4-0.4,0.6c-0.6,1.4-1,2.9-1.3,4.4
		c-0.2,1-0.3,2-0.2,3C226.5,43.5,226.7,44.2,227,44.7"/>
	<path class="st0" d="M567.5,59.4c0-1.8-0.8-3.5-2.2-4.7c-1-0.9-2.1-1.7-3.4-2.3c-1.3-0.6-2.7-1.3-3.9-2c-2.1-1.2-4-2.6-5.6-4.3
		c-0.3-0.3-0.6-0.7-0.8-1c-0.1-0.2-0.2-0.4-0.2-0.7c0-0.3,0-0.5,0-0.8c0-0.5-0.3-0.8-0.7-1c-1-0.4-1.9-1-2.7-1.7
		c0,0-0.1-0.1-0.2-0.1c-0.2-0.1-0.5,0-0.6,0.1c0,0.1,0,0.1,0,0.2c-0.1,0.3-0.1,0.6-0.1,0.9c0,0.9,0.1,1.8,0.2,2.6c0,0.1,0,0.3,0,0.4
		c0,0.1,0.1,0.2,0.2,0.2c0.5,0.2,0.9,0.6,1.2,1l0.3,0.4c1.5,2,3.1,3.8,5,5.3c1.9,1.4,3.8,2.7,5.9,3.8c1.5,0.7,2.9,1.6,4.3,2.5
		c0.4,0.3,0.7,0.6,1,0.9c0.3,0.3,0.6,0.7,0.9,1.1c0.1,0.2,0.4,0.6,0.3,0.8c-0.8,1.6-15.7,11.4-20.9,13c-1.5,0.4-3,0.1-4.4-0.6
		c-0.7-0.5-1.3-1.2-1.5-2.1c-0.3-0.9-0.3-1.8-0.2-2.7c0.3-1.4,0.7-2.8,0.9-4.2c0.1-0.3,0.1-0.7,0.1-1c0-0.1-0.1-0.2-0.2-0.2
		c-0.1,0-0.3,0-0.4,0.1c-0.1,0.2-0.2,0.4-0.3,0.6c-0.5,1.7-0.8,3.3-1.2,5.1c-0.4,1.7-0.4,3.4,0,5.1c0.4,2,1.7,3.6,3.6,4.4
		c0.7,0.3,1.4,0.4,2.2,0.2c0.7-0.1,1.5-0.3,2.2-0.6c1.3-0.6,2.5-1.2,3.7-1.9c1.4-0.8,2.7-1.6,4.1-2.5c1-0.6,2-1.2,2.9-1.9
		c1-0.7,2-1.4,3.1-2.1c1.9-1.2,3.7-2.5,5.4-3.9c0.7-0.6,1.3-1.4,1.6-2.3C567.5,62.4,567.6,60.9,567.5,59.4"/>
	<path class="st0" d="M523,64.9c0.7-1,1.3-2.1,1.6-3.2c0.3-1.2,0.5-2.5,0.5-3.8c0-0.6-0.2-3.1-0.1-3.1c4-0.5,5.3-1.7,6.2-6.9
		c0-0.5,0-1.1-0.1-1.6c0-0.3-0.1-0.5-0.1-0.8c-0.2-1.5-0.8-2.8-1.7-4c-0.3-0.4-0.6-0.8-1-1.1c-0.2-0.2-0.7-0.2-0.8,0.2
		c-0.2,1.1-0.4,2.2-0.5,3.3c-0.1,0.3,0,0.6,0.2,0.8c0.7,0.8,1.4,1.7,1.9,2.6c0.2,0.3,0.3,0.6,0.4,0.9c-1.8,2.1-4.8,2.7-7.2,1.3
		c-0.5-0.8-0.9-1.6-1.4-2.4c-0.1-0.2-0.2-0.4-0.5-0.4s-0.4,0.2-0.5,0.4c0,0.1,0,0.1,0,0.2c-0.2,0.9-0.5,2-0.7,2.9
		c-0.1,0.3,0,0.7,0.2,1c0.8,1.4,1.6,2.8,2.4,4.2c0.6,1.2,1.1,2.4,1.5,3.6c0.2,0.4,0.2,1-0.1,1.4c-0.4,0.5-0.8,1-1.3,1.5
		c-0.8,0.8-1.6,1.5-2.5,2.2c-3.6,2.9-7.6,5.3-11.9,7.2c-4.3,2.1-8.7,4-13.2,5.6c-0.6,0.2-1.3,0.4-1.9,0.6c-0.4,0.1-0.7,0.4-0.8,0.8
		c-0.1,0.4,0.1,0.6,0.5,0.6l2.8-0.6c2.2-0.4,4.4-0.7,6.6-0.9c5.1-0.5,10-3.7,14.2-6.5C518.2,69.4,521,67.5,523,64.9"/>
	<path class="st0" d="M506.4,44.6l-0.5,0.6c0,0-2.4-2.1-2.6-2.3c-0.6-0.6-1.3-1.1-1.2-2.1c0.1-0.6-0.3-0.8-0.7-1.1
		c-1-0.7-1.8-1.5-2.7-2.2c-0.1-0.1-0.3-0.2-0.4-0.3c-0.2-0.1-0.5,0-0.7,0.2c0,0,0,0,0,0c-0.1,0.1-0.1,0.3-0.1,0.4c0,0.9,0,1.9,0,2.8
		c0,0.4,0.2,0.8,0.5,1.1c0.5,0.4,0.9,0.8,1.2,1.3c1.2,1.7,2.5,3.2,4,4.6c0.3,0.3,0.5,0.5,0.8,0.8s-0.8,1.8-0.9,2
		c-0.5,1-1,1.9-1.3,2.9c-1,2.6-2,8.5-0.2,9.9c2.1,1.7,5,0.3,6.8-1.2s3.7-3.8,4-6.3c0.5-2.7-0.4-5.4-2.3-7.3c-0.5-0.4-1-0.8-1.5-1.2
		s-0.5-0.5-0.2-1.1c1.6-2.8,3.4-5.4,4.9-8.3c0.3-0.7,0.6-1.4,0.8-2.2c0.2-0.8,0.3-1.7,0.5-2.5c0-0.3,0-0.5,0-0.8
		c0-0.1-0.1-0.2-0.2-0.2c-0.1,0-0.3,0-0.4,0.1c-0.1,0.2-0.2,0.4-0.3,0.6c-1,2.3-2.3,4.5-3.6,6.6C509.6,39.7,507.4,43.1,506.4,44.6
		 M511.1,55c0,0.2-0.1,0.4-0.2,0.5c-1.1,1.1-2.3,2.1-3.6,2.9c-1.1,0.6-2.8,1.6-4.1,1s-1-2-0.6-2.9c0.9-2.2,1.9-4.3,3.2-6.3
		c0.1-0.1,0.2-0.2,0.2-0.3c1.2,0.8,2.3,1.7,3.3,2.7C510,53.2,511.1,54.2,511.1,55"/>
	<path class="st0" d="M540.1,47.5c0.5,3.5,0.8,7.1,0.7,10.6c0,0.7,0,1.4,0,2.1s0.3,0.7,0.6,0.1c0.7-1.4,1.1-2.9,1.3-4.5
		c0.3-3.4,0.1-6.9-0.4-10.3c-0.2-1.6-0.4-3.3-0.7-4.9c-0.1-0.8-0.2-1.6-0.4-2.4c-0.2-0.8-0.3-1.6-0.4-2.4c-1-5.9-2.1-11.8-3.3-17.7
		c-0.2-0.5-0.2-1.1-0.1-1.7c0.1-0.6,0.6-1.1,0.6-1.7c0-1.2-1.1-2.6-1.5-3.6c-0.3-0.6-0.6-1.3-0.8-1.9c-0.1-0.2-0.5-1.1-0.7-0.6
		c-0.4,0.9-0.8,2-1.2,2.9c-0.5,1.3,0.2,2.5,0.5,3.8s0.6,3,0.8,4.4c0.5,3.1,1.3,6.1,1.8,9.2C538.1,35.1,539.4,41.3,540.1,47.5
		C540.4,49.4,539.9,45.5,540.1,47.5"/>
	<path class="st0" d="M523.1,32.5c0.5,0.4,1.2,0.7,1.8,1c-0.2,0.2-0.3,0.4-0.5,0.6c-0.6,0.7-1.1,1.5-1.5,2.4c-0.3,0.4-0.3,0.9,0,1.3
		c1.5-1.2,3-2.3,4.6-3.3c2.2-1.3,4.7-2.3,4.9-2.8c0.4-0.7,0.7-1.5,0.9-2.4c0-0.2,0-0.3,0-0.5c-0.8,0.2-1.6,0.6-2.3,1
		c-0.7,0.5-1.6,0.9-2.4,1c-0.9,0-1.9-0.1-2.8-0.4c-0.6-0.2-1.2-0.6-1.6-1.1c-0.1-0.2,0.9-1.3,1-1.5c0.4-0.5,0.9-0.9,1.5-1.1
		c0.3-0.1,0.6,0.1,0.7,0.3c0.4,0.5,0.2,1.3,0.7,1.8c0.1,0.1,0.9-1.2,1-1.3c0.2-0.5,0.4-1.1,0.3-1.7c-0.1-0.8-0.6-1.6-1.3-2.1
		c-0.6-0.3-1.3,0.1-1.7,0.5c-0.9,0.7-1.6,1.5-2.2,2.4c-0.6,0.9-1.1,1.9-1.6,2.9c-0.7,1.3-0.5,1.9,0.7,2.8"/>
	<path class="st0" d="M492.4,25.9c0.8-0.5,1.6-0.9,2.4-1.5c1.7-1.1,3.4-2.3,5-3.5c1.1-0.9,2.2-1.9,3.2-3c0.5-0.6,0.9-1.2,1.3-1.8
		c1,0.7,1.8,1.5,2.6,2.5l0.5-1.5c0-0.1,0.1-0.1,0.1-0.2c0-0.2,0-0.4-0.1-0.6c-0.3-0.5-0.6-0.9-1-1.2c-0.7-0.4-1-1.4-0.7-2.1
		c0-0.2,0.1-0.4,0.1-0.6c0.2-1,0.1-2-0.3-2.9c-0.1-0.5-0.6-0.8-1.1-0.7c-0.5,0.1-1,0.3-1.4,0.7c-0.8,0.9-1.3,1.9-1.5,3
		c-0.2,0.6,0,1.2,0.4,1.6c0.4,0.4,0.8,0.7,1.3,1.1l0.5,0.4c-0.1,0.2-0.3,0.4-0.5,0.6c-1.2,1.1-2.3,2.3-3.6,3.4
		c-1.5,1.2-3.1,2.4-4.6,3.6c-1.1,0.8-2.2,1.7-3.2,2.6c-0.2,0.2-0.4,0.3-0.2,0.7C491.8,26.1,492.1,26,492.4,25.9 M502.7,11.8
		c0.1-0.3,0.4-0.6,0.7-0.8c0.2-0.1,0.5-0.1,0.7,0.1c0,0,0.1,0.1,0.1,0.1c0.3,0.6,0.4,1.3,0.2,1.9C503.7,12.8,503.2,12.3,502.7,11.8"
		/>
	<path class="st0" d="M546,29.3c-1,0.7-1.6,1.8-1.7,3c0,0.1,0,0.3,0.1,0.4c0.1,0.1,0.3,0.1,0.4,0c0.2-0.1,0.3-0.2,0.5-0.3
		c1.2-1,2.6-1.9,4-2.7l3-1.7c0.3-0.2,0.6-0.3,0.9-0.5l2.8-1.4c1.5-0.9,3.1-1.7,4.7-2.3c0.5-0.1,0.9-0.6,1-1.1
		c0.1-0.6,0.2-1.1,0.3-1.7c0-0.1-0.1-0.2-0.1-0.3s-0.2,0-0.2,0c-0.8,0.4-1.7,0.8-2.5,1.2c-2.3,1.3-4.8,2.4-7.1,3.8
		C550,26.9,548,28,546,29.3"/>
	<path class="st0" d="M533.8,66.8c-1.7,0.9-3.3,1.9-5,2.8c-2.2,1.2-4.3,2.4-6.4,3.7c-1.3,0.8-2.5,1.6-3.7,2.4
		c-1.3,0.9-2.1,2.4-2.1,4c0,0.1,0,0.1,0.1,0.3c0.2-0.1,0.4-0.1,0.4-0.2c0.4-0.9,1.2-1.7,2.1-2.1c0.9-0.6,1.8-1.2,2.8-1.8
		c2-1.2,4.1-2.4,6.2-3.6c0.4-0.2,0.8-0.5,1.2-0.8c1.7-0.9,3.3-1.8,5.1-2.8c0.4-0.7,0.6-1.6,0.5-2.4
		C534.6,66.3,534.2,66.5,533.8,66.8"/>
	<path class="st0" d="M544.3,12.9c0.3,0.3,0.6,0.4,1,0.4c1.1,1.3,1.4,3,2.4,4.5c0.6-0.7,0.6-0.7,0.8-1.2s0.2-1.4,0.4-2.1
		s0.3-1.6,0.5-2.4c0.1-0.3,0.2-0.6,0.3-0.8c0.1-0.2,0.4-0.4,0.7-0.3c0.3,0,0.6,0.1,0.8,0.3c0.2,0.2,0.4,0.6,0.8,0.6
		c0.7-0.9,0.5-2.3-0.4-3c-0.1-0.1-0.2-0.2-0.4-0.2c-0.2-0.1-0.5-0.1-0.8,0c-0.5,0.2-0.9,0.6-1.1,1.1c-0.4,1-0.7,2.1-0.9,3.1
		c-0.1,0.3-0.1,0.6-0.2,0.9s-0.1,0.6-0.2,1c-0.2-0.3-0.3-0.5-0.4-0.6c-0.5-1.2-1.1-2.3-1.8-3.4c-0.3-0.5-0.7-0.9-1-1.3
		c-0.3-0.4-0.8-0.6-1.3-0.5c-0.3,0-0.5,0.2-0.6,0.4c-0.3,0.8-0.4,1.7-0.2,2.5C543.3,12.1,543.8,12.4,544.3,12.9"/>
	<path class="st0" d="M510.4,29.2c0.4,0.3,0.5,0.7,0.4,1l-1.8,2.6c-0.2,0.3-0.6,0.2-1,0l-2.7-1.9c-0.4-0.3-0.5-0.7-0.4-1l1.8-2.6
		c0.2-0.3,0.6-0.2,1,0L510.4,29.2z"/>
	<path class="st0" d="M504.6,29.5c0.4,0.3,0.5,0.7,0.4,1l-1.8,2.6c-0.2,0.3-0.6,0.2-1,0l-2.7-2c-0.4-0.3-0.5-0.7-0.4-1l1.8-2.6
		c0.2-0.3,0.6-0.2,1,0L504.6,29.5z"/>
	<path class="st0" d="M399.1,73.6c0.4,0.3,0.5,0.7,0.4,1l-1.8,2.6c-0.2,0.3-0.6,0.2-1,0l-2.7-1.9c-0.4-0.3-0.5-0.7-0.4-1l1.8-2.6
		c0.2-0.3,0.6-0.2,1,0L399.1,73.6z"/>
	<path class="st0" d="M393.3,73.9c0.4,0.3,0.5,0.7,0.4,1l-1.8,2.6c-0.2,0.3-0.6,0.2-1,0l-2.7-1.9c-0.4-0.3-0.5-0.7-0.4-1l1.8-2.6
		c0.2-0.3,0.6-0.2,1,0L393.3,73.9z"/>
	<path class="st0" d="M334.2,11.5L334.2,11.5c-0.9,0.2-1.8,0.5-2.7,0.8l-10.1,4.1c-4.5,1.8-21.2,10.7-21.2,10.7
		c-0.2,0.6-0.3,1.2-0.4,1.8l0,0c0,0.3,0,0.5,0,0.5c1.5-1.1,9.2-5.1,9.2-5.1c5.2-2.8,15.8-7.3,15.8-7.3c5.6-2.2,9-3.5,9-3.5
		L334.2,11.5"/>
	<path class="st0" d="M425.9,19.1L425.9,19.1c-0.9,0.2-1.8,0.5-2.7,0.8L413.1,24c-4.5,1.8-21.2,10.7-21.2,10.7
		c-0.2,0.6-0.3,1.2-0.4,1.8l0,0c0,0.3,0,0.5,0,0.5c1.5-1.1,9.2-5.1,9.2-5.1c5.2-2.8,15.8-7.3,15.8-7.3c5.6-2.2,9-3.5,9-3.5
		L425.9,19.1"/>
	<path class="st0" d="M97.2,44.2c0-0.2,1.5-3.6,1.5-3.6h0.4c0.4,0.2,1.6,0.8,1.6,0.8l2.4,1.2c0.6,0.3,0.4,0.6,0.4,0.6
		c-0.2,0.5-1,2.1-1,2.1c-0.2,0.6-0.5,1.1-0.8,1.6l-2.5-1.2C96.7,44.5,97.1,44.3,97.2,44.2 M90.7,45.6c0-0.2,1.5-3.6,1.5-3.6h0.4
		c0.4,0.2,1.6,0.8,1.6,0.8l2.4,1.2c0.6,0.3,0.4,0.6,0.4,0.6c-0.2,0.5-1,2.1-1,2.1c-0.2,0.6-0.5,1.1-0.8,1.6l-2.5-1.2
		C90.2,45.8,90.6,45.6,90.7,45.6 M25.1,25.6c0.3-0.8,0.6-1.5,1-2.2c0,0,0.6-0.8,4.1-1.2c0,0,4.8-0.4,5.7,0.1c0.2,0.3,0.3,0.7,0.2,1
		c-0.6,1.2-1.3,2.4-2.1,3.5c-0.5,0.6-1,1.2-1.6,1.8c0,0-0.2,0.3-1.4,0.6c0,0-3,0.8-4.5,1.1c0,0-0.6,0.1-0.5-0.2c0,0-0.2-0.1,3-1.7
		c1.3-0.7,2.6-1.5,3.8-2.3c0,0-0.2-0.2-1-0.1c-1.5,0-2.9,0.1-4.4,0.4c-0.9,0.2-1.7,0.4-2.5,0.7C25,27.2,24.7,26.8,25.1,25.6
		 M35.7,57.3c-0.2,0.5-1,2-1,2c-0.2,0.6-0.5,1.1-0.8,1.6l-2.4-1.2c-2.4-1.1-2-1.3-2-1.3c0-0.2,1.5-3.6,1.5-3.6h0.4
		c0.4,0.2,1.6,0.8,1.6,0.8c0.9,0.4,2.4,1.2,2.4,1.2C35.9,57,35.7,57.2,35.7,57.3 M95.6,70.3c0.5-0.3,1-0.5,1.6-0.7
		c0,0-0.4-0.5-0.9-0.4c-0.2,0-0.4,0.2-0.6,0.3c0,0-0.1,0.1-0.1-0.1c0,0,0.2-1.1,1-1.3c0,0,0.7,0,1.8,1.1c0,0,0.6,0.6,0.5,0.8
		c-0.1,0.3-0.2,0.6-0.4,0.8c-1.1-0.3-2.3,0-3.1,0.7c-0.2,0.7-0.1,1.5,0.2,2.1c0.4,1,0.7,2.1,0.9,3.1c0.2,1.1,0.3,2.2,0.2,3.2
		c-0.1,0.4-0.2,0.9-0.3,1.3c0,0-0.2,0.2-0.2,0c0.1-1,0-2-0.2-2.9c0,0-0.7-3.4-1.2-4.7C94.8,73.6,94.4,71.2,95.6,70.3 M70.9,70.3
		c0-0.2,1.5-3.6,1.5-3.6c0.1-0.1,0.4,0,0.4,0c0.4,0.2,1.6,0.8,1.6,0.8l2.4,1.2c0.6,0.3,0.4,0.5,0.4,0.5c-0.2,0.5-1,2.1-1,2.1
		c-0.2,0.6-0.5,1.1-0.8,1.6l-2.5-1.2C70.4,70.6,70.9,70.3,70.9,70.3 M172.8,69.9c-0.7,0.5-1.4,1-2.1,1.5c0,0-1.3,0.8-3,1.9
		c-1.1,0.6-2.2,1-3.4,1.3c0,0-2.5,0.3-3.5-0.5c-0.7-0.6-0.9-1.6-0.6-2.5c0.4-0.8,0.8-1.6,1.2-2.4l1-1.6c0,0,0.1-0.3-0.5-0.4
		c-0.5-0.1-1,0-1.4,0.1c-0.4,0.1-0.8,0.3-1.1,0.6c-0.1,0.1-0.3,0-0.3-0.1c0.2-0.7,0.6-1.4,1-2c0,0,3.2-1.5,3.6,0.1
		c0.1,0.8-0.2,1.7-0.8,2.3c-0.5,0.6-0.9,1.2-1.3,1.9c0,0-1,1.6,0.1,2.1c0,0,1.9,1.4,6.7-0.5c1.2-0.5,2.4-1.1,3.5-1.8
		c0,0,0.7-0.5,0.9-0.5C172.7,69.4,173.1,69.5,172.8,69.9"/>
	<path class="st0" d="M32.9,55.5c0,0-1.1-0.6-1.6-0.8c0,0-0.3-0.1-0.4,0s-1.5,3.4-1.5,3.6c0,0-0.5,0.2,2,1.3l2.5,1.2
		c0.3-0.5,0.6-1,0.8-1.6c0,0,0.8-1.5,1-2c0,0,0.2-0.2-0.4-0.5C35.4,56.7,33.9,56,32.9,55.5"/>
	<path class="st0" d="M27.6,26.4c1.4-0.3,2.9-0.4,4.4-0.4c0.9-0.1,1,0.1,1,0.1c-1.2,0.8-2.5,1.6-3.8,2.3c-3.3,1.6-3,1.7-3,1.7
		c-0.1,0.2,0.5,0.2,0.5,0.2c1.5-0.3,4.5-1.1,4.5-1.1c1.2-0.3,1.4-0.6,1.4-0.6c0.6-0.6,1.1-1.1,1.6-1.8c0.8-1.1,1.5-2.3,2.1-3.5
		c0.1-0.3,0.1-0.7-0.2-1c-0.9-0.5-5.7-0.1-5.7-0.1c-3.5,0.4-4.1,1.2-4.1,1.2c-0.4,0.7-0.7,1.4-1,2.2c-0.4,1.1-0.2,1.5-0.2,1.5
		C25.9,26.8,26.7,26.6,27.6,26.4"/>
	<path class="st0" d="M75.4,72.9c0.3-0.5,0.6-1,0.8-1.6c0,0,0.8-1.5,1-2.1c0,0,0.1-0.2-0.4-0.5l-2.4-1.2c0,0-1.1-0.6-1.6-0.8
		c0,0-0.3-0.1-0.4,0c0,0-1.5,3.4-1.5,3.6c0,0-0.5,0.2,2,1.3L75.4,72.9"/>
	<path class="st0" d="M99.2,45.6l2.5,1.2c0.3-0.5,0.6-1,0.8-1.6c0,0,0.8-1.5,1-2.1c0,0,0.1-0.2-0.4-0.6l-2.4-1.2
		c0,0-1.2-0.6-1.6-0.8c0,0-0.3-0.1-0.4,0s-1.5,3.4-1.5,3.6C97.2,44.2,96.7,44.5,99.2,45.6"/>
	<path class="st0" d="M92.7,46.9l2.5,1.2c0.3-0.5,0.6-1,0.8-1.6c0,0,0.8-1.6,1-2.1c0,0,0.1-0.2-0.4-0.5l-2.4-1.2
		c0,0-1.2-0.6-1.6-0.8c0,0-0.3-0.1-0.4,0s-1.5,3.4-1.5,3.6C90.7,45.6,90.3,45.8,92.7,46.9"/>
	<path class="st0" d="M172.8,69.3c-0.2-0.1-0.9,0.5-0.9,0.5c-1.1,0.7-2.3,1.3-3.5,1.8c-4.8,1.9-6.7,0.5-6.7,0.5
		c-1.1-0.5-0.1-2.1-0.1-2.1c0.4-0.7,0.8-1.3,1.3-1.9c0.6-0.6,0.9-1.4,0.8-2.3c-0.4-1.6-3.6-0.1-3.6-0.1c-0.4,0.6-0.8,1.3-1,2
		c0.1,0.1,0.2,0.2,0.3,0.1c0.3-0.3,0.7-0.5,1.1-0.6c0.5-0.2,0.9-0.2,1.4-0.1c0.7,0.1,0.5,0.4,0.5,0.4l-1,1.6
		c-0.5,0.8-0.9,1.6-1.2,2.4c-0.3,0.9-0.1,1.9,0.6,2.5c1,0.8,3.5,0.5,3.5,0.5c1.2-0.3,2.3-0.7,3.4-1.3c1.8-1.1,3-1.9,3-1.9
		c0.7-0.5,1.4-1,2.1-1.5C173.1,69.5,172.8,69.3,172.8,69.3"/>
	<path class="st0" d="M95.9,78.3c0.2,1,0.3,2,0.2,2.9c0,0.2,0.2,0,0.2,0c0.1-0.4,0.2-0.8,0.3-1.3c0.1-1.1,0-2.2-0.2-3.2
		c-0.2-1.1-0.5-2.1-0.9-3.1c-0.3-0.7-0.3-1.4-0.2-2.1c0.8-0.8,2-1,3.1-0.7c0.2-0.2,0.4-0.5,0.4-0.8c0.1-0.2-0.5-0.8-0.5-0.8
		c-1.1-1.1-1.8-1.1-1.8-1.1c-0.7,0.1-1,1.3-1,1.3c0,0.2,0.1,0.1,0.1,0.1c0.1-0.2,0.3-0.3,0.6-0.3c0.5-0.1,0.9,0.4,0.9,0.4
		c-0.5,0.2-1.1,0.4-1.6,0.7c-1.3,0.9-0.9,3.2-0.9,3.2C95.2,75,95.9,78.3,95.9,78.3"/>
	<path class="st0" d="M159,26.3c-0.7,0.9-1.5,1.7-2.3,2.5c-1.9,1.8-5.3,4.6-5.3,4.6c-3.3,2.6-5.3,3.9-5.3,3.9c-4.4,3-4,3-4,3
		c0.1,0.2,0.7-0.1,0.7-0.1c1.2-0.6,2.5-1.5,2.5-1.5c2.5-1.6,3.9-2.4,3.9-2.4c2.5-1.6,3.5-2.5,3.5-2.5c2.3-1.9,3-2.7,3-2.7
		c1-0.9,1.8-1.8,2.7-2.8c1.4-2,1.3-1.5,1.3-1.5c0.2,0,0.8,0.9,0.8,0.9c0.3,0.4,0.6,0.8,0.8,1.3c0.3-0.6,0.5-1.1,0.6-1.7
		c0-0.4-0.1-0.8-0.3-1.1c-0.2-0.4-0.5-0.8-0.9-1.2c-0.1-0.1,0.4-0.8,0.4-0.8c0.3-0.6,0.6-1.3,0.8-2c0.2-0.9,0.1-1.8-0.1-2.7
		c-0.4-1.4-2.3-0.8-2.3-0.8c-1.4,0.9-2.5,2.2-3,3.8c-0.1,0.5-0.1,1.1,0.2,1.5C157.3,25,158.1,25.7,159,26.3 M157.7,21.5
		c0.3-0.4,0.8-0.7,1.4-0.8c1.1-0.3,1.5,0.3,1.5,0.3c0.3,0.5,0.4,1,0.3,1.5c0,0.7-0.2,1.5-0.5,2.1c-0.7-0.5-1.4-1.1-2-1.7
		C157.2,21.8,157.7,21.5,157.7,21.5"/>
	<path class="st0" d="M97.1,8.2L97.1,8.2C96,8.4,94.3,9,94.3,9l-10.2,4.1c-4.5,1.8-21.5,10.8-21.5,10.8c-0.2,0.6-0.3,1.2-0.4,1.8
		l0,0c0,0.3,0,0.5,0,0.5c1.5-1.1,9.3-5.1,9.3-5.1c5.3-2.8,16-7.3,16-7.3c5.7-2.3,9.1-3.5,9.1-3.5L97.1,8.2"/>
	<path class="st0" d="M16.5,107v-1.3c0-1.3-0.2-1.5-0.5-1.8l0.1-0.4c0.5-0.2,1-0.2,1.4-0.2c0.4,0,0.8,0,1.2,0.2
		c-0.1,1.1-0.1,1.3-0.1,2.7c0,0.5,0,1.6,0,1.6c-0.3,0-0.5,0-0.8,0.1c-1.2,0.3-2.3,0.4-3.5,0.4c-3.4,0-5.2-2.3-5.2-5.6
		c0-3.6,2.3-6.1,5.8-6.1c1.6,0,3.1,0.7,3.5,1.5c-0.1,0.7-0.6,1.4-1.3,1.7l-0.3-0.2c-0.2-1-1.1-1.7-2.1-1.8c-2.1,0-3,2-3,4.2
		c0,2.7,1.1,5.1,3.4,5.1C15.7,107.1,16.1,107,16.5,107"/>
	<path class="st0" d="M20.4,104c-0.1-2.4,1.8-4.5,4.2-4.6c0.1,0,0.1,0,0.2,0c2,0,3.9,1.4,3.9,4.4c0.1,2.5-1.9,4.6-4.4,4.7
		c0,0,0,0,0,0C20.5,108.4,20.4,104.3,20.4,104 M22.7,103.3c0,2.2,0.9,4.1,2,4.1c0.9,0,1.7-1.3,1.7-3.2c0-2.2-1-3.9-2.2-3.9
		S22.7,102.1,22.7,103.3"/>
	<path class="st0" d="M34.7,107.2l-0.4,1.4l-0.6-0.2c-0.7-0.1-1.2-0.6-1.4-1.2c-0.5-1.5-1-3.2-1.5-4.7c-0.6-1.9-1.4-2.2-1.4-2.2V100
		c0.5-0.3,1-0.5,1.6-0.5c1,0,1.3,0.5,1.6,1.4c0.3,1.4,0.8,2.8,1.3,4.2l0.4,0.9c0-0.3,0.1-0.6,0.2-0.9l1.1-3c0.1-0.3,0.2-0.7,0.2-1.1
		c0-0.2-0.1-0.5-0.3-0.6V100c0.4-0.3,0.9-0.5,1.4-0.5c0.3,0,0.6,0.2,0.6,0.5c0,0,0,0.1,0,0.2c-0.1,0.5-0.2,1-0.4,1.5L34.7,107.2z"/>
	<path class="st0" d="M45.3,103.5c-0.4,0.1-0.7,0.2-1.1,0.2h-3.8c0,0.2,0,0.4,0,0.6c-0.1,1.4,0.9,2.5,2.3,2.6c0,0,0,0,0,0
		c1.2,0,2.2-0.6,2.8-1.6c0.5,1.9-1.6,3-3.6,3s-3.7-1.2-3.7-4.1c0-2.7,1.5-4.9,3.8-4.9c3.2,0,3.4,2.8,3.4,3.6v0.4L45.3,103.5z
		 M40.4,102.8c1,0,1.9-0.1,3-0.1c0-1-0.4-2.2-1.4-2.2S40.6,101.6,40.4,102.8"/>
	<path class="st0" d="M47.7,108.2c0-1,0.1-3.4,0.1-5.8c0-1.7-0.6-2-0.9-2v-0.3c0.5-0.4,1.2-0.6,1.8-0.6c0.7,0,1.1,0.3,1.1,1
		c0,0.1-0.1,0.5-0.1,0.8c0.2-0.6,1.3-1.9,2.3-1.9s1.4,0.6,1.4,1.2c0,0.6-0.5,1.1-1.1,1.1c0,0,0,0,0,0h-0.2c0-0.4-0.4-0.7-0.8-0.7
		c-1.4,0-1.6,1.6-1.6,3.3c0,1.3,0,2.7,0.2,4L47.7,108.2z"/>
	<path class="st0" d="M60.1,108.2c0-0.2,0-0.4-0.1-0.5c0-1.3,0-3,0-4.4c0-1.6-0.2-2.3-1-2.3c-0.8,0-1.5,0.3-2,0.8
		c0,0.7,0,3.3,0.1,5.1c0,0.4,0.1,0.9,0.1,1.3h-2.4v-0.5l0.1-5.2c0-1.9-0.9-2-0.9-2v-0.3c0.5-0.4,1.2-0.6,1.8-0.6
		c0.6,0,1.1,0.4,1.1,1v0.5c0.7-0.9,1.7-1.4,2.8-1.5c1.2-0.1,2.3,0.9,2.3,2.1c0,0,0,0.1,0,0.1c-0.1,2.2,0,4.4,0.2,6.6L60.1,108.2z"/>
	<path class="st0" d="M70.3,108.2c0-0.2,0-0.4-0.1-0.5c0-1.3,0-3,0-4.4c0-1.6-0.2-2.3-1-2.3c-0.8,0-1.5,0.3-2,0.8
		c0,0.7,0,3.3,0.1,5.1c0,0.4,0.1,0.9,0.1,1.3h-2.4v-0.5l0.1-5.2c0-1.9-0.9-2-0.9-2v-0.3c0.5-0.4,1.2-0.6,1.8-0.6
		c0.6,0,1.1,0.4,1.1,0.9v0.5c0.7-0.9,1.7-1.4,2.8-1.5c1,0,1.9,0.6,2.2,1.6c0.7-0.9,1.7-1.5,2.8-1.6c1.2-0.1,2.3,0.9,2.3,2.1
		c0,0,0,0.1,0,0.1c-0.1,2.2,0,4.4,0.2,6.6h-2.3c0-0.2,0-0.4-0.1-0.5c0-1.3,0-3,0-4.4c0-1.6-0.2-2.3-1-2.3c-0.7,0-1.4,0.2-1.9,0.7
		c-0.1,2.2,0,4.3,0.2,6.5L70.3,108.2z"/>
	<path class="st0" d="M86.5,103.5c-0.4,0.1-0.7,0.2-1.1,0.2h-3.8c0,0.2,0,0.4,0,0.6c-0.1,1.4,0.9,2.5,2.3,2.6c0,0,0,0,0,0
		c1.2,0,2.2-0.6,2.8-1.6c0.5,1.9-1.6,3-3.6,3s-3.7-1.2-3.7-4.1c0-2.7,1.5-4.9,3.8-4.9c3.2,0,3.4,2.8,3.4,3.6v0.4L86.5,103.5z
		 M81.6,102.8c1,0,1.9-0.1,3-0.1c0-1-0.4-2.2-1.4-2.2S81.8,101.6,81.6,102.8"/>
	<path class="st0" d="M94.1,108.2c0-0.2,0-0.4-0.1-0.5c0-1.3,0-3,0-4.4c0-1.6-0.2-2.3-1-2.3c-0.8,0-1.5,0.3-2,0.8
		c0,0.7,0,3.3,0.1,5.1c0,0.4,0.1,0.9,0.1,1.3h-2.4v-0.5l0.1-5.2c0-1.9-0.9-2-0.9-2v-0.3c0.5-0.4,1.2-0.6,1.8-0.6
		c0.6,0,1.1,0.4,1.1,1v0.5c0.7-0.9,1.7-1.4,2.8-1.5c1.2-0.1,2.3,0.9,2.3,2.1c0,0,0,0.1,0,0.1c-0.1,2.2,0,4.4,0.2,6.6L94.1,108.2z"/>
	<path class="st0" d="M101.2,99.6h1.6c0.2,0,0.8-0.1,0.9-0.3c0,0.1,0,0.3,0,0.4c0,0.5-0.2,1-1.5,1c-0.3,0-0.8-0.1-1.1-0.1v3.8
		c0,1-0.1,2.3,1.1,2.3c0.6,0,1.6-0.2,1.8-0.6c0.5,1.1-0.9,2.1-2.4,2.1c-2.1,0-2.5-1-2.5-2.8c0-1.2,0.2-2.5,0.2-3.7
		c0-0.4,0-0.8-0.1-1.2c-0.2-0.3-0.5-0.5-0.9-0.6l0.1-0.5c0.1,0,0.9,0,1.8-1.4h1.4L101.2,99.6z"/>
	<path class="st0" d="M115.6,96.7c2.6,0,4.8,1.9,4.8,5.6c-0.1,3.4-2.3,6-5.8,6c-2.3,0-4.6-1.9-4.6-5.6
		C110,99.1,112.3,96.7,115.6,96.7 M115.4,107.2c1.4,0,2.5-1.9,2.5-4.3c0-2.7-1.4-5-2.9-5s-2.5,1.9-2.5,4.2
		C112.5,104.7,113.8,107.2,115.4,107.2"/>
	<path class="st0" d="M126.1,99.6c0.2,0,0.8-0.1,0.9-0.3c0,0.1,0.1,0.3,0,0.4c0,0.5-0.2,1-1.5,1c-0.3,0-0.6-0.1-0.9-0.1v1
		c0,2.2,0.1,4.3,0.3,6.4h-2.4c0-0.4,0.1-4,0.1-5.5c0.1-0.6,0-1.3-0.1-1.9c-0.2-0.3-0.5-0.5-0.8-0.7l0.1-0.5c0.5,0,1-0.5,0.9-1
		c0.3-2.8,1.9-3.5,3.2-3.5s2,0.6,2,1.4c0,0.5-0.4,0.9-0.9,0.9c0,0,0,0-0.1,0c-0.2,0-0.5-0.1-0.6-0.2c0-0.3-0.1-0.8-0.9-0.8
		s-1,0.6-1,1.4c0,0.1,0,0.2,0,0.3l0.1,1.1c0,0.1,0,0.2,0,0.3L126.1,99.6z"/>
	<path class="st0" d="M141.9,106.7c0.2,0.5,0.4,1,0.6,1.4h-2.7c0-0.3-0.1-0.6-0.2-0.8l-1-2.8h-3.9l-1.2,3.4c0,0.1,0,0.2,0,0.3h-1.6
		l3.8-9.8c0.3-1.1,1.4-1.7,2.8-1.8c0.1,0.5,0.2,1,0.4,1.5L141.9,106.7z M136.7,99l-1.6,4.3h3.1L136.7,99z"/>
	<path class="st0" d="M144,102.2c0-1.1-0.4-1.7-0.9-1.9V100c0.5-0.4,1.1-0.6,1.8-0.6c1.6,0,1.3,1.9,1.2,3s0-0.2,0,5.9
		c0,2.6-1.7,4-3.2,4c-0.3,0-0.7-0.2-0.9-0.5c1.1,0,2-2,2-3.5L144,102.2z M143.7,97.3c0,0.6,0.6,1.1,1.2,1.1c0.6,0,1.1-0.5,1.1-1.1
		c0-0.6-0.5-1.2-1.1-1.2C144.2,96.1,143.7,96.6,143.7,97.3L143.7,97.3"/>
	<path class="st0" d="M154.2,108.2c0-0.2,0-0.4,0-0.5c0-1.3,0-3,0-4.4c0-1.6-0.2-2.3-1-2.3c-0.8,0-1.5,0.3-2,0.8c0,0.7,0,3.3,0,5.1
		c0,0.4,0.1,0.9,0.1,1.3h-2.4v-0.5l0.1-5.2c0-1.9-0.9-2-0.9-2v-0.3c0.5-0.4,1.2-0.6,1.8-0.6c0.6,0,1.1,0.4,1.1,0.9v0.5
		c0.7-0.9,1.7-1.4,2.8-1.5c1,0,1.9,0.6,2.2,1.6c0.7-0.9,1.7-1.5,2.8-1.6c1.2-0.1,2.3,0.9,2.3,2.1c0,0,0,0.1,0,0.1
		c-0.1,2.2,0,4.4,0.2,6.6h-2.3c0-0.2,0-0.4,0-0.5c0-1.3,0-3,0-4.4c0-1.6-0.2-2.3-1-2.3c-0.7,0-1.4,0.2-1.9,0.7
		c-0.1,2.2,0,4.3,0.2,6.5L154.2,108.2z"/>
	<path class="st0" d="M171.3,107.5v0.4c-0.6,0.3-1.2,0.5-1.9,0.5c-0.7,0-1.3-0.5-1.4-1.2c-0.5,0.8-1.3,1.2-2.2,1.2
		c-1.2,0.2-2.4-0.7-2.6-2c0-0.1,0-0.2,0-0.3c0-1.7,1.7-2.6,3.6-2.6c0.3,0,0.7,0.1,1,0.1c0-0.4,0-0.7,0-1c0-1.2-0.2-2.2-1.2-2.2
		c-0.6,0-1,0.4-1.1,0.9c0,0.1,0,0.3,0.1,0.4c-0.3,0.2-0.6,0.3-1,0.4c-0.5,0-0.9-0.3-1-0.8c0,0,0-0.1,0-0.1c0-1.1,1.5-1.8,3-1.8
		c2,0,3.4,0.9,3.4,2.6c0,0.7,0,1.2,0,2.5c0,0.8,0,1.6,0.2,2.4C170.4,107.6,171.3,107.6,171.3,107.5 M165.2,105.9
		c0,0.7,0.5,1.2,1.1,1.2c0,0,0,0,0,0c0.5,0,1-0.2,1.5-0.5c0-0.8,0-1.6,0-2.3C167.1,104.3,165.2,104.6,165.2,105.9"/>
	<path class="st0" d="M178,108.2c0-0.2,0-0.4,0-0.5c0-1.3,0-3,0-4.4c0-1.6-0.2-2.3-1-2.3c-0.8,0-1.5,0.3-2,0.8c0,0.7,0,3.3,0,5.1
		c0,0.4,0.1,0.9,0.1,1.3h-2.4v-0.5l0.1-5.2c0-1.9-0.9-2-0.9-2v-0.3c0.5-0.4,1.2-0.6,1.8-0.6c0.6,0,1.1,0.4,1.1,1v0.5
		c0.7-0.9,1.7-1.4,2.8-1.5c1.2-0.1,2.3,0.9,2.3,2.1c0,0,0,0.1,0,0.1c-0.1,2.2,0,4.4,0.2,6.6L178,108.2z"/>
	<path class="st0" d="M39.4,71.8c-1.9,1.3-4,2.6-6.1,3.7c-2.2,1.2-4.6,2.1-7,2.7c-2.4,0.6-4.9,0.6-7.3,0.2c-2.6-0.6-4.9-2-6.6-4
		c-2.5-3-3.5-6.9-2.9-10.8c0.2-1.5,0.5-3.1,1-4.6c0.5-1.6,1.1-3.1,1.8-4.6c0.6-1.2,1.2-2.3,1.9-3.4c0.7-0.9,0.5-0.9,0.5-0.9
		c-0.2-0.8-0.3-1.7-0.2-2.5c0.2-1.1,0.4-2.3,0.8-3.4c0.4-1.3,2-4.4,2-4.4c1-2.1,1.9-3.8,1.9-3.8c0.7-1.4,1.1-0.8,1.1-0.8
		c0.2,0.1-0.1,0.8-0.1,0.8c-0.4,1-0.9,2.2-0.9,2.2c-0.5,1.3-1.9,4-1.9,4c-1.3,2.6-1,3.9-1,3.9c0.3,3.2,2.4,3.1,2.4,3.1
		c0.9-0.2,1.3-1.4,1.3-1.4c0.2-0.7,0.5-1.3,0.9-1.9c0.3-0.2,0.4,0.5,0.4,0.5c0,0.4,0,0.8-0.2,1.2c-0.3,1-0.6,2-1.1,3
		c-1.3,2.9-2.7,2.9-2.7,2.9c-1,0.2-2.1-1.4-2.1-1.4c-0.1-0.3-0.2-0.5-0.4-0.7c-0.1,0-0.2,0.3-0.2,0.3c-0.3,0.9-1.6,3.6-1.6,3.6
		c-0.6,1.5-1.2,3-1.7,4.6c-0.4,1.6-0.6,3.2-0.5,4.8c0.2,1.7,0.7,3.3,1.7,4.8c1.3,1.9,3.1,3.3,5.1,4.1c2.1,0.7,4.3,1,6.5,0.7
		c1.8-0.2,3.6-0.6,5.2-1.3c2-0.7,4.3-1.9,4.3-1.9c2.2-1.1,4.4-2.5,4.4-2.5c1.8-1.1,3.9-2.7,3.9-2.7c2.6-2,2.6-2.3,2.6-2.3
		c0-0.1,0-0.3,0-0.4c-0.3-1.3-0.8-2.6-1.4-3.8c-0.3-0.7-1.4-3-1.4-3c-0.5-1-0.8-2.1-1.1-3.2c-0.5-2.5-0.8-3.3-0.8-3.3
		c-0.1-0.2-0.3-0.5-0.4-0.7c0-0.1,0-0.3,0.1-0.4c0-0.3,1.2-3.7,1.2-3.7l0.6,0.6c0.3,0.4,1.1,1.8,1.1,1.8c1,1.7,1.8,3.2,1.8,3.2
		c0.1,0.3-0.2,0.4-0.2,0.4c-0.5-0.4-1-0.7-1.5-0.9c-0.1,0,0,0.4,0,0.4c0.2,0.6,0.4,1.1,0.6,1.6c0.6,1.5,1.5,3.1,1.5,3.1
		c1.8,3.7,1.5,5.9,1.5,5.9c-0.3,2.1-0.9,4.1-1.7,6C43.7,69.1,39.4,71.9,39.4,71.8"/>
	<path class="st0" d="M180.2,50.2c-2.1-0.2-5.5-0.5-5.5-0.5c-2.4-0.3-4.8-0.8-7.2-1.4c-1.4-0.3-7.4-2-7.4-2
		c-5.3-1.8-6.5-1.8-6.5-1.8c-4-0.2-5.5,1.2-5.5,1.2c-0.3,0.4-1.6,3-1.6,3c-0.4,0.7-0.1,0.7-0.1,0.7c0.3,0,1.1-0.1,1.1-0.1
		c1.4-0.1,2.9,0.1,4.3,0.5c2.4,0.9,3,0.5,3,0.5c0.4-0.1,1-1,1-1c0.1,0,0.3,0,0.4,0c0.3,0.1,3.5,1.1,3.5,1.1c1.5,0.4,3.2,0.8,3.2,0.8
		c2.4,0.5,2.5,0.7,2.5,0.7c-0.1,0.1-0.2,0.2-0.4,0.2c-0.7,0.4-3.7,1.8-3.7,1.8c-1.9,1-3.9,1.8-6,2.5c-5,1.6-7.6-0.5-7.6-0.5
		c-1.4-1.1-2.6-2.4-3.7-3.7c-1.2-1.2-3.2-3.4-3.2-3.4c-1.4-1.4-5.4-4.8-5.4-4.8c-2.1-1.8-4.4-3.4-6.8-4.9c-0.9-0.5-6.1-4-6.1-4
		c-1.8-1.3-5.2-3.7-5.2-3.7c-2-1.5-4.8-3.6-4.8-3.6c-0.8-0.6-0.3-0.9-0.3-0.9c0.8-0.7,1.6-1.4,2.5-2c1.3-0.9,4-2.4,4-2.4
		c1.7-0.9,4.5-2.3,4.5-2.3c1.5-0.8,5.1-2.3,5.1-2.3c2.2-0.9,6.6-2.5,6.6-2.5c2.8-1,5.8-2,5.8-2c1.9-0.6,3.9-1.1,5.9-1.4
		c2.1-0.2,2.6,0.6,2.6,0.6c0.6,0.5,0.1,1.5,0.1,1.5c-0.4,0.5-0.8,1-1.3,1.4c-0.8,0.9-2.9,3.2-2.9,3.2c-1,1.2-2,2.5-2.8,3.9
		c-0.8,1.4-1.8,3.6-1.8,3.6c-0.6,1.3-1.2,2.6-1.6,4c-0.2,0.7,0.6,0.5,0.6,0.5c0.2-0.2,0.3-0.5,0.4-0.8c0.2-0.7,0.5-1.4,0.8-2
		c0.6-1.3,1.2-2.5,1.9-3.7c0.9-1.4,1.9-2.8,3-4c0.5-0.6,1.6-1.8,1.6-1.8c1-1,1.8-2,2.6-3.2c0.5-0.8,0.9-1.6,1.3-2.5
		c1-2.4,0.6-3.4,0.6-3.4c-0.2-1.5-3-1.4-3-1.4c-2.1,0.3-4.1,0.7-6.2,1.3c-1.5,0.4-6.3,1.9-6.3,1.9c-2.1,0.8-7.7,2.8-7.7,2.8
		c-2.4,1-8.2,3.8-8.2,3.8c-2.8,1.3-5.4,3-7.7,4.9c-0.7,0.8-1.2,1.8-1.2,2.8c-0.2,3.8,0.6,5.4,0.6,5.4c1.3,1.3,2.7,2.6,4.2,3.8
		c2.5,1.9,7.3,6,7.3,6c2.1,1.9,5.7,5,5.7,5c1.7,1.7,3.4,3.5,4.9,5.3c2.1,2.8,1.7,3.8,1.7,3.8c-1.2,0.8-2.6,1.5-4,2.1
		c-0.5,0.3-0.5,0-0.5,0c-0.2-0.7-0.5-1.3-0.8-1.9c-0.6-1-1.5-1.9-2.5-2.5c-1.4-0.7-3-0.4-4.1,0.6c-2.1,1.5-2.9,5-2.9,5
		c-0.4,3.3,1.6,4.3,1.6,4.3c1.3,0.9,4.1,0.3,4.1,0.3c1.1-0.3,3.4-0.9,3.4-0.9l0.1,0.4c0.1,0.4,0.1,0.8,0.1,1.2
		c-0.4,0.6-1.3,1.5-1.3,1.5c-1.7,1.9-3.5,3.6-5.5,5.1c-2,1.7-4.1,3.2-6.5,4.4c-1.9,1.1-4.2,1.3-6.2,0.6c-1.7-0.7-3.1-1.9-4-3.5
		c-0.8-1.4-1.1-3-0.9-4.7c0.1-1.3,0.4-2.5,0.9-3.7c0.3-0.8,0.4-0.7,0.4-0.7c0.6-0.1,2.3-0.7,2.3-0.7c1.2-0.5,2.2-1.1,3.3-1.9
		c0.4-0.3,0.8-0.7,1.1-1.1c0.5-0.9,0.9-1.9,1.2-2.8c0.4-1.4,0.5-2.8,0.5-4.2c-0.1-1.3-0.5-2.7-1.2-3.8c-1-1.6-2.1-1.5-2.1-1.5
		c-1.1-0.1-2.2,1.4-2.2,1.4c-1.2,1.2-2.1,4.7-2.1,4.7c-0.5,1.9-0.8,3.9-1,5.8c-1.1,0.1-2.1,0-3.1-0.3c-1-0.5-1.9-1.2-2.4-2.2
		c-0.7-1.2-1.3-2.5-1.9-3.8c-0.4-0.8-0.7-0.9-0.7-0.9c-1.3-1-4.1,1.1-4.1,1.1c-1.9,1.1-4,6.4-4,6.4c-0.6,1.4-2,5.3-2,5.3
		c-2.1,5.1-3.8,4.1-3.8,4.1c-1.7-0.4-3.5-3.4-3.5-3.4c-0.6-1.2-1-2.5-1.3-3.9c-0.2-1.7,0.1-1.6,0.1-1.6l1.7-0.6c1.3-0.5,4.9-2,4.9-2
		c1.9-0.7,1.8-0.9,1.8-0.9c0.3-0.4,1.4-3,1.4-3c0.3-0.6-0.1-0.7-0.1-0.7c-0.4-0.1-4.5,0.6-4.5,0.6c-2.1,0.3-7.2,0.8-7.2,0.8
		c-1.6,0.3-7.4,0.8-7.4,0.8c-2.4,0.3-7.1,0.5-7.1,0.5c-0.4,0-0.1-0.2-0.1-0.2c0.2-0.2,4.5-2.5,4.5-2.5c2.9-1.6,11.6-6.3,11.6-6.3
		l8.4-4.4c0.5-1.1,1-2.2,1.3-3.3c0.1-0.5-0.2-0.5-0.2-0.5c-0.4,0.2-4.3,2.2-4.3,2.2c-1.7,1-8.2,4-8.2,4c-3.3,1-7.7-2-7.7-2
		c-1.5-1.1-2.7-2.4-3.6-4c-0.5-0.8-0.8-1.6-0.9-2.5c0.1-0.4,0.7-0.9,0.7-0.9c1.8-1.9,6.8-2.6,6.8-2.6c2.3-0.3,4.6-0.3,6.9-0.1
		c1.4,0.1,2.7,0.6,3.8,1.4c0.3,0,0.3-0.3,0.3-0.3c0-0.4-3.2-2.8-3.2-2.8c-2.1-1.5-4.6-2.2-7.2-2.2c-2.5,0.3-4.9,1.2-6.9,2.7
		c-1.4,1.4-2.5,3.1-3,5.1c-0.6,2.1,0.7,5.1,0.7,5.1c0.6,1.6,1.6,3,2.9,4.1c1.1,1,2.3,1.7,3.6,2.3c0,0.1-0.3,0.2-0.3,0.2
		c-1.4,0.8-6.2,3.5-6.2,3.5c-2.5,1.4-4.9,3-7.2,4.8c-0.1,0.5-0.9,3.1-0.9,3.1c-0.1,0.5-0.2,0.3-0.2,0.3c-0.1-0.7-0.5-4.9-0.5-4.9
		c-0.1-1.9-0.4-6.7-0.4-6.7c-0.1-2.8-0.5-8.9-0.5-8.9c-0.1-2.6-0.8-10.8-0.8-10.8c-0.2-3-0.6-7.7-0.6-7.7c-0.2-2.8-0.7-5.5-1.4-8.2
		c-0.4-1.1-0.9,0.3-0.9,0.3c-0.2,0.6-1.1,3.2-1.1,3.2c0.2,0.7,0.4,1.5,0.6,2.3c0.6,2.1,1.1,9.4,1.1,9.4c0.2,2.3,0.8,9.9,0.8,9.9
		c0.1,2.2,0.5,8.7,0.5,8.7c0.1,3.2,0.6,10.9,0.6,10.9c0.1,2.8,1.1,8.1,1.1,8.1c0.5,2.4,1.5,4.6,2.7,6.7c1.7,2.3,3.9,4.2,6.4,5.6
		c2.2,1,4.5,1.7,6.9,2c1,0.1,1.1-0.3,1.1-0.3c0.3-0.9,0.5-1.8,0.7-2.7c0.3-1.3-0.3-1.5-0.3-1.5c-2.1-0.5-4-1.2-5.9-2.1
		c-1.5-0.6-2.6-2-2.8-3.7c0.5-1,2.8-2.6,2.8-2.6c1.5-1,3.1-2,4.8-2.7c1.9-1,3.9-1.8,3.9-1.8c1.6-0.8,4.4-1.9,4.4-1.9
		c0.8-0.4,0.6,0.1,0.6,0.1c0,0.8,0.1,2.4,0.1,2.4c0,0.9,0.2,1.8,0.4,2.6c0.3,1.2,0.9,2.3,1.6,3.3c2.6,3.4,4.8,2.7,4.8,2.7
		c0.5-0.1,1-0.3,1.4-0.6c0.9-0.7,1.8-3.3,1.8-3.3l0.9-2.4c0.5-1.5,1.9-4.8,1.9-4.8c0.3-0.9,0.8-1.8,1.4-2.5c0.7-0.9,1.6-1.5,2.6-1.9
		c2-0.9,2.6,1.4,2.6,1.4c0.5,1.2,1.2,2.4,1.9,3.5c0.4,0.5,0.9,0.9,1.4,1.3c1.1,0.8,2.4,1.2,3.8,1.1c0.2,0,0.1,0.2,0.1,0.2
		c-0.3,1-0.6,2-0.8,3l0,0c-0.3,1.4-0.4,2.8-0.4,4.2c0,0.7,0.1,1.4,0.2,2.1c0.4,1.4,1.1,2.8,1.9,4.1c1.5,2,3.8,3.2,6.2,3.3
		c2.9,0,6.1-2.2,6.1-2.2c1.9-1.2,5.6-4.4,5.6-4.4c1-0.8,3.7-3.5,3.7-3.5c2.5-2.6,2.6-3.2,2.6-3.2c0.3-0.9,0.6-1.9,0.8-2.8
		c0.2-0.9,0.3-1.7,0.3-2.6c0.1-0.1,0.4-0.3,0.4-0.3c0.5-0.2,1.7-0.9,1.7-0.9c0.8-0.4,1.4-1,1.9-1.8c0.5-1.5,0.8-3.1,0.9-4.7
		c0.1-1.2-0.1-2.3-0.5-3.4c-0.1-0.3,0.1-0.3,0.1-0.3c0.2,0.1,1.8,1.6,1.8,1.6c1.2,1,2.8,2.8,2.8,2.8l3.8,4c1.1,1.1,1.7,1.8,1.7,1.8
		c0.9,0.7,2,1.1,3.1,1.2c1.9,0.1,3.7-0.1,5.5-0.8c1.6-0.6,3.2-1.3,4.8-2.1c2.9-1.6,7.1-3.5,7.1-3.5c2.2-0.8,4.6-1.2,7-1.1
		c1.8,0,5,0.4,5,0.4c0.7-1.1,1.3-2.3,1.8-3.6l0,0c0-0.1-0.1-0.2-0.2-0.2 M123.1,58.3c0,0-0.8-0.3-0.7-0.5c0.4-0.6,1-1.1,1.7-1.4
		c0,0,0.5-0.3,2,0.5c0.6,0.3,1.1,0.8,1.6,1.3C127.6,58.2,124.9,59.1,123.1,58.3 M108.3,53.5c0,0,1-2.2,2.3-2.8c0,0,0.8-0.2,1.9,1.3
		c0.5,0.9,0.9,1.9,1.1,3c0,0,0.2,0.6-2.2,1.9c-0.7,0.4-1.4,0.7-2.2,1c0,0-1.4,0.6-1.7,0.3C107.6,56.6,107.8,55,108.3,53.5
		 M73.3,58.5c0,0-1.3,0.5-3.8,1.7c0,0-2,1-3.3,1.7c-1,0.7-2,1.4-2.9,2.2c-0.7,0.6-1.2,1.3-1.8,2.1c-0.3,0.7-0.5,1.4-0.7,2.2
		c-0.2,0.9-0.2,1.8-0.2,2.7c0,0,0,0.2-0.2,0.1c-1.3-1.1-2.5-2.3-3.4-3.7c-0.8-1.1-1.3-2.4-1.6-3.7c0,0-0.4-1.6-0.6-2.7
		c0,0-0.1-0.9-0.1-1.2c0,0,0,0,0.1-0.1s0.7-0.7,3.3-0.8c0,0,5.2-0.1,8-0.4c0,0,3.7-0.4,5.4-0.6c0,0,1.6-0.2,2.6-0.3
		c0,0,0.8-0.1,0.8,0S75.5,57.6,73.3,58.5"/>
	<path class="st0" d="M148.8,69c-0.1-0.5-0.3-0.9-0.7-1.2c-0.4-0.5-1-0.8-1.7-0.9c-0.9,0-1.7,1.5-1.7,1.5c-0.5,1-0.8,2-0.9,3.1
		c-0.1,1.2-0.3,2.3-0.6,3.5h0c-0.1-0.3-0.2-0.5-0.2-0.8c-0.2-1-1.1-3.5-1.1-3.5c-1.2-2.6-2.1-3-2.1-3c-0.8-0.5-1.3,0.8-1.3,0.8
		c-0.5,0.9-0.5,1.4-0.5,1.6c-0.1,0.5,0.1,0.6,0.1,0.6c0.7,0.6,1.3,1.2,1.8,1.9c0.2,0.1,0.4-0.4,0.4-0.4c0.3-0.6,0.4-0.2,0.4-0.2
		c0.3,0.8,0.5,1.3,0.5,1.3c0.5,1.4,0.9,3.4,0.9,3.4c0.2,1.7,0.7,1.2,0.7,1.2c0.2-0.2,0.4-0.5,0.5-0.8c0.4-0.9,0.6-1.8,0.8-2.8
		c0.2-1.8,0.5-3.1,0.5-3.1c0.4-1.7,1.2-1.8,1.2-1.8c0.9-0.4,2,1.1,2,1.1c0.4,0.5,0.5,0.2,0.5,0.2c0.2-0.4,0.4-0.9,0.6-1.4
		c0-0.1,0-0.2,0-0.3L148.8,69"/>
</g>
</svg>
